<svg aria-hidden="true" style="position: absolute; width: 0; height: 0; overflow: hidden;" version="1.1" xmlns="http://www.w3.org/2000/svg" xmlns:xlink="http://www.w3.org/1999/xlink">
<defs>
<symbol id="barrier" viewBox="0 0 32 32">
<path fill="#1d1d1b" style="fill: var(--color1, #1d1d1b)" d="M25.705 18.73c-0.435 0-0.765 0.5-0.875 0.5-0.205 0.045-0.475 0-0.79 0-0.052-0.006-0.113-0.009-0.175-0.009-0.442 0-0.843 0.177-1.136 0.465l0-0c-0.46 0.5-0.69 2.69-0.065 3.21s1.625 0.29 2 0.23 0.5 0.105 0.935 0.125c0.002 0 0.004 0 0.007 0 0.758 0 1.424-0.395 1.803-0.991l0.005-0.009c0.46-0.795 0.060-2.17-0.165-2.69-0.346-0.493-0.906-0.815-1.543-0.83l-0.002-0zM9.27 9.605c1 0.315 2.54-0.1 3.435-0.165s2.375 0.27 3.065 0.23 1.605-0.96 1.895-2.5-0.25-3.5-1.685-4-3.17 0.31-3.96 0.6-1.68 0.23-2.915 0.835-1.21 1.275-1.23 2 0.415 2.69 1.395 3zM18.395 10.38c0.21 0.060 4.75-5.085 4.81-5.25s-0.35-0.545-0.56-0.545-4.925 4.885-4.875 5.125c0.147 0.279 0.359 0.506 0.618 0.666l0.007 0.004zM26.27 6.88c0.165 0.040 1.29-1.42 1.355-1.605s-0.315-0.23-0.5-0.25-1.5 1.255-1.395 1.375c0.147 0.194 0.326 0.354 0.532 0.475l0.009 0.005zM6.56 11.65c0.17-0.295-0.915 0-1.205 0.125-0.656 0.381-1.163 0.954-1.452 1.643l-0.008 0.023c-0.347 0.592-0.561 1.298-0.585 2.053l-0 0.007c0.161 0.122 0.364 0.196 0.585 0.196 0.111 0 0.218-0.019 0.317-0.053l-0.007 0.002c0.21-0.105 0.15-0.835 0.46-1.855s1.73-1.85 1.895-2.14zM18.25 4.025c0.459-0.309 0.851-0.675 1.177-1.094l0.008-0.011c0.045-0.125-0.060-0.335-0.31-0.415s-1.395 0.625-1.355 1c0.020 0.185 0.29 0.54 0.48 0.52zM28.145 8.335c-0.895-1.185-2.815-0.54-3.19-0.435s-1.4-0.1-1.875 0.27c-1.5 1.165-1.125 3.23-1.060 3.75 0.112 0.529 0.543 0.932 1.079 0.999l0.006 0.001c0.455 0.040 1.81 0.645 2.54 0.81s2 0.105 2.5-0.685 0.895-3.52 0-4.71zM24.79 15.605c0.065-0.205-0.040-0.165-0.23-0.205s-1.5 1.090-1.665 1.29c-0.065 0.085 0.375 0.585 0.54 0.585s1.295-1.46 1.355-1.67zM15.5 28.73c-0.125-0.040-0.5 0.105-1.96 0.085-0.053 0.004-0.115 0.006-0.177 0.006-0.61 0-1.168-0.224-1.596-0.594l0.003 0.003c-0.165 0-0.5 0.315-0.625 0.5s0.31 0.275 0.56 0.42c0.533 0.227 1.153 0.359 1.804 0.359 0.069 0 0.138-0.001 0.206-0.004l-0.010 0c0.114 0.011 0.246 0.017 0.379 0.017 0.555 0 1.084-0.107 1.569-0.302l-0.028 0.010c0-0.080 0-0.455-0.125-0.5zM19.33 13.42c-1.185-0.71-1.955-2-3.54-2.125s-2.645 0.78-4 0.96c-1.915 0.25-3.585 0.5-4.915 1.56-1.164 0.992-1.921 2.433-2 4.052l-0 0.013c-0.015 0.102-0.023 0.22-0.023 0.34 0 0.751 0.331 1.425 0.855 1.883l0.003 0.003c0.395 0.375-0.065 1.125-0.125 1.75 0.104 1.579 0.837 2.968 1.948 3.934l0.007 0.006c1.44 1.085 2.23 1 3.5 1s1.79 0.27 3.75 0.625 2.5 0.085 3.94-1.23 0.77-2.77 0.895-3.040 0.77-0.605 1.355-1.27 1-2.835 0.83-4.335-1.31-3.415-2.48-4.125z"></path>
<path fill="#e6e4da" style="fill: var(--color2, #e6e4da)" d="M10.58 4.775c0.324 0.528 0.898 0.876 1.553 0.876 0.018 0 0.036-0 0.055-0.001l-0.003 0c0.717-0.058 1.31-0.532 1.541-1.178l0.004-0.012c0.145-0.355 0.080-0.625 0.145-0.625s1.435-0.455 2.145 0.46c0.457 0.597 0.733 1.354 0.733 2.175 0 0.338-0.047 0.665-0.134 0.975l0.006-0.025c-0.315 0.835-1.065 1.46-1.5 1.46-0.851-0.137-1.832-0.216-2.831-0.216-0.163 0-0.326 0.002-0.488 0.006l0.024-0.001c-1.395 0.125-1.625 0.23-1.895 0.105-0.495-0.446-0.85-1.038-0.996-1.709l-0.004-0.021c-0.022-0.117-0.034-0.251-0.034-0.388 0-0.533 0.186-1.022 0.497-1.406l-0.003 0.004c0.337-0.182 0.729-0.345 1.139-0.468l0.046-0.012z"></path>
<path fill="#e6e4da" style="fill: var(--color2, #e6e4da)" d="M11.23 4.585c-0.025-0.1 1.83-0.625 1.895-0.5-0.030 0.485-0.35 0.889-0.787 1.042l-0.008 0.003c-0.067 0.017-0.143 0.026-0.222 0.026-0.389 0-0.725-0.232-0.875-0.565l-0.002-0.006z"></path>
<path fill="#1d1d1b" style="fill: var(--color1, #1d1d1b)" d="M14.375 4.38c-0.035-0.11 0.31-0.17 0.415-0.085s0.625 1.31 0.5 1.415-0.375 0.21-0.455 0.065-0.44-1.335-0.46-1.395zM15.355 4.44c-0.030-0.080 0.225-0.085 0.375 0.065s0.435 0.83 0.31 0.915-0.21 0.145-0.31 0.060c-0.146-0.295-0.274-0.642-0.367-1.002l-0.008-0.038zM10.435 6.775c0.565-0.325 1.565-0.21 1.565 0.725s-1.395 1.085-1.75 0.71c-0.181-0.161-0.294-0.395-0.294-0.655 0-0.339 0.193-0.633 0.474-0.778l0.005-0.002z"></path>
<path fill="#fff" style="fill: var(--color3, #fff)" d="M10.79 7.13c0.24-0.145 0.71 0.040 0.71 0.35s-0.5 0.42-0.71 0.335c-0.122-0.067-0.203-0.196-0.203-0.343s0.081-0.275 0.201-0.341l0.002-0.001z"></path>
<path fill="#1d1d1b" style="fill: var(--color1, #1d1d1b)" d="M14 6.525c0.625-0.39 1.955 0 1.81 0.895s-1.125 1.060-1.665 1-1.815-0.855-0.145-1.895z"></path>
<path fill="#fff" style="fill: var(--color3, #fff)" d="M14.25 6.88c0.22-0.11 1-0.105 1 0.435s-0.71 0.75-1.165 0.625-0.44-0.77 0.165-1.060z"></path>
<path fill="#e6e4da" style="fill: var(--color2, #e6e4da)" d="M23.625 8.9c0.175-0.17 0.77-0.21 0.81-0.085s0.145 1 0.73 1.335c0.222 0.171 0.504 0.275 0.81 0.275 0.173 0 0.338-0.033 0.489-0.093l-0.009 0.003c0.355-0.125 0.605-0.31 0.565-0.395s-0.165-0.335-0.25-0.335-0.835 0.545-1.335 0.125-0.31-1-0.080-1.080 1.645-0.295 2 0.185 0.31 3.5 0.105 3.355-0.44-0.835-0.565-0.835-0.395 0.105-0.335 0.25 0.69 0.855 0.565 1-0.355 0.315-0.46 0.23-0.33-1.105-0.54-1.085-0.5 0.125-0.415 0.25 0.33 0.73 0.205 0.75-1.060-0.29-1.5-0.33-1.085 0.060-1.31-0.545-0.23-2.245 0.52-2.975z"></path>
<path fill="#1d1d1b" style="fill: var(--color1, #1d1d1b)" d="M24.205 10.63c0.082-0.027 0.177-0.042 0.275-0.042 0.445 0 0.816 0.32 0.895 0.742l0.001 0.006c0 0.5-0.895 0.895-1.375 0.545s-0.565-0.94 0.205-1.25z"></path>
<path fill="#fff" style="fill: var(--color3, #fff)" d="M24.405 11.080c0.027-0.009 0.058-0.014 0.090-0.014 0.146 0 0.267 0.104 0.294 0.242l0 0.002c0 0.175-0.295 0.295-0.455 0.18s-0.185-0.31 0.070-0.41z"></path>
<path fill="#e6e4da" style="fill: var(--color2, #e6e4da)" d="M23.29 20.065c0.070-0.085 0.46-0.185 0.44-0.085s-0.295 0.565 0.25 0.795c0.278 0.098 0.514 0.254 0.704 0.454l0.001 0.001s0.105 1.065-0.060 1.065-0.295 0.040-0.315-0.065 0-0.75-0.105-0.77-0.35-0.125-0.375 0 0.065 0.94-0.040 0.875-0.25 0.065-0.435-0.23-0.25-1.81-0.065-2.040zM26 19.795c0.060-0.040 0.27-0.125 0.375-0.040 0.219 0.316 0.35 0.708 0.35 1.131 0 0.1-0.007 0.199-0.022 0.295l0.001-0.011c-0.080 0.75-0.185 0.915-0.33 0.96s-0.125 0.125-0.15 0.040 0-0.73-0.125-0.75-0.395 0-0.415 0.060 0.105 0.9-0.060 0.875-0.44 0-0.46-0.125c-0.035-0.197-0.055-0.423-0.055-0.654 0-0.122 0.006-0.242 0.017-0.361l-0.001 0.015c0.060 0 0.77-0.045 0.915-0.5 0.034-0.121 0.053-0.26 0.053-0.404 0-0.191-0.034-0.373-0.097-0.542l0.003 0.011z"></path>
<path fill="#fff" style="fill: var(--color3, #fff)" d="M24.625 19.795c0.69-0.085 1 0.375 0.935 0.665s-0.435 0.5-0.935 0.21-0.52-0.815 0-0.875z"></path>
<path fill="#e6e4da" style="fill: var(--color2, #e6e4da)" d="M11.625 13c0.725-0.085 1.56-0.5 2.75-0.625 0.204-0.035 0.438-0.056 0.678-0.056 0.975 0 1.872 0.335 2.581 0.897l-0.009-0.007c0.953 0.699 1.775 1.495 2.48 2.388l0.020 0.027c0.544 0.757 0.871 1.702 0.871 2.724 0 0.44-0.061 0.866-0.174 1.269l0.008-0.033c-0.395 1.54-0.56 1.855-1.060 2.23s-1.105 0.935-1.125 1.145 0.5 1.815-0.5 2.71-1.75 1.185-2.27 1.145-2.25-0.69-4-0.71-2.815-0.105-3.605-0.705c-0.763-0.707-1.335-1.61-1.635-2.629l-0.010-0.041c0-0.375-0.105-0.725 0.040-0.79s1.605-0.31 2.040-0.665 0.355-1.145 0-1.69-0.625-0.98-1.205-1.085-1.375 0.585-1.375 0.585c-0.193-0.289-0.308-0.644-0.308-1.026 0-0.123 0.012-0.244 0.035-0.36l-0.002 0.012c0.15-0.71 0.525-2.355 1.65-3.375s2.895-1.205 4.125-1.335z"></path>
<path fill="#1d1d1b" style="fill: var(--color1, #1d1d1b)" d="M8.58 14.38c0.14-0.095 0.545 0.145 0.46 0.29-0.367 0.394-0.697 0.831-0.98 1.3l-0.020 0.035c-0.185 0.5-0.080 0.79-0.27 0.875s-0.46 0.31-0.5 0c0.003-0.484 0.134-0.938 0.362-1.328l-0.007 0.013c0.263-0.457 0.581-0.848 0.951-1.181l0.004-0.004zM14.31 13.44c0.96-0.25 1.795 0.29 2.335 0.625 0.339 0.268 0.746 0.465 1.191 0.561l0.019 0.004c0.435 0.060 0.75 0.165 0.83 0.5s0 1.165-0.25 1.27-1.29 0.125-1.79 0.54-0.665 0.855-1.355 1-1.415 0.27-2.185-0.355-1.5-3.435 1.205-4.145z"></path>
<path fill="#fff" style="fill: var(--color3, #fff)" d="M14.5 13.94c0.052-0.004 0.113-0.005 0.175-0.005 0.545 0 1.053 0.157 1.482 0.427l-0.011-0.007c0.56 0.335 0.435 0.4 1 0.545s0.935 0.205 1 0.435 0.185 0.645-0.085 0.73-1.25 0.065-1.73 0.395-0.83 1.145-1.875 1.040c-0.803-0.115-1.418-0.78-1.455-1.596l-0-0.004c-0.004-0.044-0.006-0.095-0.006-0.146 0-0.899 0.643-1.648 1.494-1.812l0.012-0.002z"></path>
<path fill="#1d1d1b" style="fill: var(--color1, #1d1d1b)" d="M17.79 18.5c0.175-0.094 0.383-0.149 0.605-0.149 0.718 0 1.3 0.582 1.3 1.3 0 0.171-0.033 0.334-0.093 0.483l0.003-0.009c-0.46 1.275-1.815 1.42-2.42 0.71-0.186-0.254-0.297-0.573-0.297-0.917 0-0.624 0.365-1.162 0.893-1.414l0.009-0.004z"></path>
<path fill="#fff" style="fill: var(--color3, #fff)" d="M17.97 18.955c0.114-0.063 0.25-0.101 0.395-0.101 0.456 0 0.825 0.369 0.825 0.825 0 0.116-0.024 0.226-0.067 0.326l0.002-0.005c-0.096 0.413-0.461 0.717-0.897 0.717-0.25 0-0.477-0.1-0.643-0.262l0 0c-0.122-0.164-0.195-0.37-0.195-0.593 0-0.4 0.235-0.745 0.573-0.905l0.006-0.003zM6.56 19.565c0.085-0.060 0.5-0.56 1.045-0.355s1 1.42 0.81 1.565c-0.463 0.241-1 0.435-1.564 0.553l-0.041 0.007c-0.040-0.060 0.19-0.855 0.105-1.125-0.1-0.246-0.219-0.459-0.361-0.654l0.006 0.009z"></path>
<path fill="#1d1d1b" style="fill: var(--color1, #1d1d1b)" d="M12.375 21.46c0.22-0.095 1.81-0.165 2.105 0.105s0.435 1.105 1.1 1.44 1 0.56 1 1.145c-0.039 0.544-0.46 0.979-0.995 1.040l-0.005 0c-0.395 0-1.455-0.46-2.29-0.46-0.108 0.010-0.235 0.016-0.362 0.016-0.567 0-1.107-0.112-1.601-0.316l0.028 0.010c-0.289-0.264-0.47-0.643-0.47-1.064 0-0.103 0.011-0.203 0.031-0.3l-0.002 0.009c0.165-0.25 0.645-1.27 1.46-1.625z"></path>
<path fill="#fff" style="fill: var(--color3, #fff)" d="M12.73 21.96c0.34-0.14 1.31-0.145 1.455 0.105s0.335 0.835 0.645 1 1.295 0.585 1.275 0.935-0.46 0.795-0.525 0.75c-0.569-0.315-1.248-0.501-1.97-0.501-0.032 0-0.063 0-0.094 0.001l0.005-0c-1.105 0.045-1.29 0.19-1.605 0s-0.56-0.625-0.46-0.875c0.326-0.567 0.753-1.039 1.262-1.406l0.013-0.009z"></path>
<path fill="#1d1d1b" style="fill: var(--color1, #1d1d1b)" d="M10.27 18.63c0.047-0.092 0.141-0.154 0.25-0.154s0.203 0.062 0.249 0.152l0.001 0.002c0.105 0.23 0.585 2.5 0.44 2.585s-0.295 0.27-0.4 0.105c-0.233-0.766-0.423-1.678-0.533-2.614l-0.007-0.076zM11.455 18.585c0.052-0.058 0.127-0.095 0.21-0.095s0.158 0.037 0.21 0.095l0 0c0.060 0.125 0.455 1.9 0.27 1.96s-0.355 0.19-0.44-0.040-0.375-1.73-0.25-1.92zM12.705 18.815c0.050-0.14 0.355-0.060 0.42 0.040 0.106 0.503 0.173 1.085 0.185 1.681l0 0.009c-0.040 0.085-0.355 0.105-0.415-0.040-0.093-0.489-0.161-1.070-0.189-1.661l-0.001-0.029zM13.895 19.065c0.043-0.051 0.106-0.084 0.178-0.084s0.135 0.032 0.177 0.083l0 0c0.125 0.125 0.54 1.71 0.29 1.73s-0.375 0.105-0.5-0.19c-0.1-0.358-0.158-0.77-0.158-1.195 0-0.121 0.005-0.242 0.014-0.361l-0.001 0.016zM15.080 18.855c0.090-0.085 0.375-0.205 0.42 0.045s0.060 0.665-0.085 0.73-0.31 0.225-0.375 0c-0.018-0.091-0.028-0.197-0.028-0.304 0-0.168 0.025-0.33 0.071-0.482l-0.003 0.012zM8 22.605c0-0.155 0.335-0.185 0.395 0s0.25 0.71 0.145 0.75c-0.057 0.042-0.13 0.067-0.207 0.067-0.044 0-0.086-0.008-0.125-0.023l0.002 0.001c-0.13-0.065-0.21-0.605-0.21-0.795z"></path>
</symbol>
<symbol id="enemyLvl6" viewBox="0 0 32 32">
<path fill="#1d1d1b" style="fill: var(--color1, #1d1d1b)" d="M6.265 15.075c-0.009-0.132-0.014-0.286-0.014-0.442 0-0.322 0.021-0.639 0.063-0.949l-0.004 0.036c0.080 0 1.58 0.045 1.58 0s-0.1-2.125 0.085-2.23c0.66-0.101 1.451-0.175 2.252-0.204l0.038-0.001v-1.25s-1.935 0.080-1.955-0.085-0.315-2.71-0.125-2.77 3-0.19 3 0.040 0.080 2.295 0.080 2.295 2-0.17 2.085 0 0.040 1.685 0.25 1.705 3.46 0.145 3.46 0c-0.003-0.092-0.005-0.199-0.005-0.307 0-0.516 0.040-1.023 0.117-1.518l-0.007 0.055c0.1-0.080 2.455-0.105 2.455-0.105-0.012-0.211-0.019-0.458-0.019-0.706 0-0.456 0.023-0.906 0.069-1.35l-0.005 0.056c0.1-0.145 3.205-0.165 3.205 0.025-0.018 0.936-0.084 1.837-0.198 2.723l0.013-0.123c-0.085 0-2.46 0.045-2.46 0.045v0.56s3.77 0.105 3.81 0.295-0.1 2.77 0 2.77 1.875 0 1.895 0.185 0 1.75 0 1.75 2 0.045 2.060 0.27-0.145 6.605-0.375 6.71c-0.271 0.033-0.586 0.051-0.905 0.051-0.52 0-1.028-0.050-1.521-0.144l0.050 0.008c-0.060-0.125 0-4.25-0.105-4.29s-1.27 0-1.27 0 0.125 4.5-0.040 4.665-2.69 0.125-2.69 0.125 0.19 1.73 0.065 1.77-5.045 0.295-5.045 0.105-0.040-2.5 0.15-2.605 3.625-0.1 3.6-0.205 0-0.92-0.060-0.94-7.845 0.085-7.845 0.21c-0.020 0.134-0.031 0.29-0.031 0.448s0.011 0.313 0.033 0.465l-0.002-0.017c0.065 0 3.585 0.085 3.605 0.145 0.030 0.378 0.047 0.818 0.047 1.262s-0.017 0.885-0.050 1.32l0.004-0.058c-0.678 0.038-1.472 0.060-2.27 0.060s-1.592-0.022-2.38-0.065l0.11 0.005c-0.17-0.105-0.23-2.045-0.23-2.045s-2.77-0.29-2.79-0.435 0-4.17-0.085-4.23c-0.125-0.030-0.269-0.048-0.417-0.048s-0.292 0.017-0.43 0.050l0.013-0.003c0 0.065 0.085 4 0 4.040s-3 0.335-3 0-0.21-6.7-0.025-6.83c0.632-0.149 1.374-0.254 2.133-0.294l0.032-0.001z"></path>
<path fill="#c8db89" style="fill: var(--color4, #c8db89)" d="M5.060 16.16c0.363-0.086 0.785-0.143 1.217-0.16l0.013-0s0.060 5.5 0 5.5-1.19 0.165-1.23 0-0.060-5.235 0-5.34zM7.29 14.5c0.083-0.035 0.179-0.055 0.28-0.055s0.197 0.020 0.285 0.057l-0.005-0.002c0 0.060 0.040 2.79 0 2.79s-0.54 0.105-0.565 0-0.060-2.735 0.005-2.79zM9.12 7.89c0.090-0.060 1.125-0.065 1.17 0.060 0.029 0.182 0.045 0.392 0.045 0.605s-0.016 0.423-0.048 0.628l0.003-0.023c-0.175 0.009-0.379 0.015-0.585 0.015s-0.41-0.005-0.613-0.016l0.028 0.001c-0.043-0.191-0.067-0.41-0.067-0.635s0.024-0.444 0.071-0.655l-0.004 0.020zM20.54 8c0.125-0.011 0.27-0.018 0.417-0.018 0.309 0 0.611 0.028 0.903 0.082l-0.030-0.005c0.009 0.112 0.014 0.242 0.014 0.374 0 0.258-0.020 0.511-0.058 0.758l0.003-0.028c-0.187 0.019-0.405 0.030-0.625 0.030s-0.438-0.011-0.652-0.032l0.027 0.002c-0.011-0.174-0.017-0.378-0.017-0.582s0.006-0.408 0.019-0.61l-0.001 0.028z"></path>
<path fill="#8ec480" style="fill: var(--color5, #8ec480)" d="M11.12 10.285c0.306-0.049 0.658-0.077 1.017-0.077 0.142 0 0.282 0.004 0.422 0.013l-0.019-0.001c0.003 0.657 0.056 1.299 0.154 1.926l-0.009-0.071c0.080 0 5.185-0.040 5.205-0.145s0.105-1.625 0.17-1.685c0.188-0.036 0.404-0.056 0.625-0.056s0.437 0.020 0.647 0.060l-0.022-0.003c0 0.080-0.065 1.205 0.040 1.23s3.585 0.125 3.625 0.205-0.085 4.605-0.085 4.605-0.77-0.835-0.83-0.75-0.25 0.335-0.17 0.375c0.369 0.303 0.697 0.631 0.99 0.988l0.010 0.012c0.010 0.125 0.016 0.271 0.016 0.418s-0.006 0.293-0.017 0.437l0.001-0.019c-0.371-0.349-0.772-0.677-1.195-0.977l-0.035-0.023c-0.045 0.060-0.17 0.33-0.105 0.395s1.335 1.25 1.335 1.33v0.73c-0.366-0.291-0.781-0.585-1.21-0.859l-0.060-0.036c-0.060 0-0.23 0.44-0.145 0.46 0.531 0.265 0.989 0.563 1.408 0.906l-0.013-0.011c0 0.125 0.045 0.73 0.045 0.73s-1.355-0.89-1.415-0.89-0.105 0.435-0.105 0.435c0.568 0.354 1.057 0.711 1.519 1.101l-0.019-0.016c0.007 0.093 0.011 0.203 0.011 0.313s-0.004 0.219-0.012 0.327l0.001-0.014c-0.374-0.284-0.796-0.555-1.239-0.79l-0.051-0.025c-0.065 0.065-0.19 0.335-0.085 0.375s0.94 0.71 0.855 0.73c-0.26 0.039-0.56 0.061-0.865 0.061-0.18 0-0.358-0.008-0.533-0.023l0.023 0.002c0-0.080 0-1.79-0.085-1.81s-4.040-0.105-4.955-0.065-4.815 0.25-4.875 0.4 0.060 1.375 0 1.375c-0.773-0.015-1.517-0.076-2.247-0.181l0.097 0.011c-0.060-0.080-0.25-9.375-0.060-9.435s2.27-0.125 2.27-0.19-0.005-1.735-0.025-1.795z"></path>
<path fill="#1d1d1b" style="fill: var(--color1, #1d1d1b)" d="M10.81 13.825c0.545-0.099 1.173-0.156 1.814-0.156 0.367 0 0.729 0.019 1.086 0.055l-0.045-0.004c0.056 0.551 0.088 1.191 0.088 1.838 0 0.365-0.010 0.727-0.030 1.087l0.002-0.050c-0.552 0.059-1.193 0.093-1.842 0.093-0.356 0-0.71-0.010-1.062-0.030l0.049 0.002c-0.052-0.561-0.082-1.213-0.082-1.872 0-0.339 0.008-0.675 0.023-1.010l-0.002 0.047z"></path>
<path fill="#fab900" style="fill: var(--color6, #fab900)" d="M11.79 14.595c0.143-0.038 0.308-0.060 0.477-0.060s0.334 0.022 0.491 0.063l-0.013-0.003c0 0.065 0.145 1.085 0 1.15-0.177 0.049-0.38 0.077-0.59 0.077-0.145 0-0.287-0.013-0.425-0.039l0.014 0.002c-0.005-0.096-0.007-0.209-0.007-0.323 0-0.306 0.019-0.607 0.056-0.903l-0.004 0.035z"></path>
<path fill="#1d1d1b" style="fill: var(--color1, #1d1d1b)" d="M17.64 13.64c0.546-0.1 1.174-0.156 1.816-0.156 0.368 0 0.731 0.019 1.089 0.055l-0.045-0.004c0.059 0.557 0.093 1.203 0.093 1.858 0 0.358-0.010 0.713-0.030 1.066l0.002-0.049c-0.547 0.056-1.181 0.088-1.823 0.088-0.363 0-0.723-0.010-1.081-0.030l0.050 0.002c-0.056-0.583-0.088-1.261-0.088-1.945 0-0.311 0.007-0.621 0.020-0.928l-0.002 0.044z"></path>
<path fill="#fab900" style="fill: var(--color6, #fab900)" d="M18.62 14.41c0.144-0.041 0.309-0.064 0.48-0.064s0.336 0.023 0.493 0.067l-0.013-0.003c0 0.060 0.145 1.085 0 1.145-0.176 0.050-0.378 0.079-0.586 0.079-0.146 0-0.289-0.014-0.428-0.041l0.014 0.002c-0.005-0.099-0.007-0.215-0.007-0.331 0-0.301 0.017-0.598 0.050-0.89l-0.003 0.036z"></path>
<path fill="#1d1d1b" style="fill: var(--color1, #1d1d1b)" d="M9.5 12.95c0 0.13 0.5-0.105 0.5 0s0.105 2.045 0.045 2.085-0.5 0.105-0.5 0-0.045-2.125-0.045-2.085z"></path>
<path fill="#c8db89" style="fill: var(--color4, #c8db89)" d="M24 14.325c0.060-0.060 1-0.125 1 0.045s0 2.895-0.105 2.895c-0.087 0.005-0.188 0.008-0.29 0.008-0.265 0-0.525-0.019-0.779-0.056l0.029 0.003c-0.025-0.060 0.080-2.85 0.145-2.895zM26.185 16.41c0.1-0.035 0.915-0.065 0.935 0.040s-0.27 5.21-0.355 5.25c-0.094 0.011-0.202 0.018-0.313 0.018s-0.219-0.007-0.325-0.019l0.013 0.001s-0.020-5.27 0.045-5.29zM11.915 22.97c0.282-0.013 0.612-0.021 0.944-0.021 0.671 0 1.335 0.031 1.99 0.092l-0.084-0.006v1.125l-2.855-0.065c-0.019-0.162-0.029-0.35-0.029-0.54 0-0.206 0.012-0.409 0.037-0.609l-0.002 0.024zM17.060 23.075c0.743-0.070 1.606-0.11 2.479-0.11 0.183 0 0.366 0.002 0.548 0.005l-0.027-0c0 0.085 0.080 0.92 0 0.96s-3.060 0.070-3.060 0.070 0-0.905 0.060-0.925z"></path>
</symbol>
<symbol id="enemyLvl1" viewBox="0 0 32 32">
<path fill="#1d1d1b" style="fill: var(--color1, #1d1d1b)" d="M5.805 10.775c0.725-0.66 0.095-2.47 2.030-3.53s3.065-0.69 3.065-0.69c0.272-0.139 0.587-0.238 0.921-0.279l0.014-0.001c0.53-0.065 1.28 0.25 3-0.5s2.5-1.47 4-1.53 3.905 0.465 4.97 1.465 1.125 3.75 2.56 5.94 2.72 4.095 2.69 5.595-0.97 2.965-2.595 5.155c-1 1.408-2.068 2.644-3.241 3.772l-0.009 0.008c-0.5 0.44-1.78 1.75-3.875 1.565s-4-1.125-4.78-1.315c-0.387-0.124-0.833-0.195-1.294-0.195-0.384 0-0.756 0.049-1.111 0.142l0.031-0.007c-1.002 0.319-2.158 0.521-3.355 0.559l-0.020 0c-0.78-0.060-2.655-1.31-3.655-3.5s-2.5-7.345-2.15-8.845 1.775-2.875 2.805-3.81z"></path>
<path fill="#e6e4da" style="fill: var(--color2, #e6e4da)" d="M6.615 10.93c0.335-0.5 0.75-2.28 1.375-2.75s2.19-1.095 2.47-0.875c0.596 0.744 1.426 1.279 2.377 1.495l0.028 0.005c1.75 0.47 3 0.53 4.19-0.595 0.6-0.502 0.979-1.25 0.979-2.088 0-0.078-0.003-0.156-0.010-0.232l0.001 0.010c0.036-0.263 0.136-0.497 0.283-0.694l-0.003 0.004c0.125-0.090 4.125 0.16 5.030 1.315s1.125 4.375 2.47 6.375 2.095 3.030 2.095 4.31-0.345 2.41-1.75 4.035-3.41 4.655-4.41 5.125c-0.734 0.325-1.59 0.514-2.491 0.514-0.412 0-0.814-0.040-1.204-0.115l0.040 0.006c-1.185-0.25-2.53-1.69-4.625-1.47s-3.185 1.195-4.875 0.655-3.22-4.375-3.81-6.655-1.375-4.155-0.595-5.405 2.095-2.47 2.435-2.97z"></path>
<path fill="#fff" style="fill: var(--color3, #fff)" d="M11.525 7.18c0.16-0.035 0.625 0 2.030-0.22s3.155-1.435 3.28-1.215 0.030 1.56-0.53 2.030-1.94 0.56-2.815 0.405-2.25-0.935-1.965-1z"></path>
<path fill="#1d1d1b" style="fill: var(--color1, #1d1d1b)" d="M8 9.87c0.113-0.588 0.388-1.1 0.776-1.501l-0.001 0.001c0.29-0.165 1.185-0.44 1.25-0.29s0.225 0.375 0.060 0.455-0.895 0.125-1 0.395c-0.168 0.409-0.364 0.761-0.596 1.086l0.011-0.016c-0.135 0.1-0.445-0.050-0.5-0.13zM5.47 13.41c0.13-0.11 0.77 0.105 0.69 0.25s-0.73 0.625-0.73 1.27 0.205 1.145 0.040 1.21-0.605 0.23-0.645-0.040c-0.044-0.232-0.069-0.499-0.069-0.771 0-0.177 0.011-0.352 0.031-0.524l-0.002 0.021c0.18-0.54 0.412-1.008 0.699-1.437l-0.014 0.021zM20.41 6.95c0.163-0.087 0.356-0.138 0.561-0.138 0.668 0 1.21 0.542 1.21 1.21 0 0.079-0.008 0.156-0.022 0.23l0.001-0.008c-0.19 1.145-1.69 1.125-2.17 0.685-0.2-0.221-0.322-0.515-0.322-0.838 0-0.507 0.301-0.943 0.734-1.139l0.008-0.003z"></path>
<path fill="#fff" style="fill: var(--color3, #fff)" d="M20.665 7.5c0.083-0.045 0.182-0.072 0.286-0.072 0.334 0 0.605 0.271 0.605 0.605 0 0.041-0.004 0.082-0.012 0.121l0.001-0.004c-0.095 0.575-0.85 0.565-1.090 0.345-0.102-0.111-0.164-0.259-0.164-0.422 0-0.255 0.152-0.473 0.37-0.571l0.004-0.002z"></path>
<path fill="#1d1d1b" style="fill: var(--color1, #1d1d1b)" d="M14.595 10.5c0.405-0.13 1.405 0 1.315 1s-1.23 0.77-1.69 0.54-0.46-1.36 0.375-1.54z"></path>
<path fill="#fff" style="fill: var(--color3, #fff)" d="M14.775 11c0.18-0.045 0.61 0 0.565 0.445s-0.525 0.335-0.725 0.235c-0.080-0.073-0.13-0.179-0.13-0.295 0-0.182 0.121-0.335 0.287-0.384l0.003-0.001z"></path>
<path fill="#1d1d1b" style="fill: var(--color1, #1d1d1b)" d="M9.805 12.6c0.71-0.34 2.5-0.15 3.77 0.415s0.925 1.29 0.425 3.040-0.945 2.945-1.3 3.395c-0.352 0.41-0.802 0.725-1.313 0.913l-0.022 0.007c-0.27 0.040-1.29 0.080-1.5-0.145-0.264-0.434-0.669-0.76-1.15-0.916l-0.015-0.004c-0.645-0.125-1.315 0-1.71-0.875-0.161-0.393-0.254-0.85-0.254-1.328 0-0.678 0.188-1.312 0.514-1.853l-0.009 0.016c0.608-1.115 1.48-2.018 2.534-2.648l0.031-0.017z"></path>
<path fill="#fff" style="fill: var(--color3, #fff)" d="M10.16 13.035c0.4-0.15 2.125 0.25 2.725 0.44s1.025 0.54 0.94 1.060c-0.359 1.24-0.722 2.249-1.137 3.231l0.072-0.191c-0.435 1.19-0.435 1.46-1.080 1.855s-1.125 0.545-1.295 0.375c-0.37-0.453-0.856-0.799-1.413-0.993l-0.022-0.007c-0.75-0.185-1.315-0.33-1.395-0.56-0.1-0.328-0.157-0.704-0.157-1.095 0-0.578 0.126-1.127 0.352-1.62l-0.010 0.024c0.585-1.055 1.795-2.29 2.42-2.52z"></path>
<path fill="#1d1d1b" style="fill: var(--color1, #1d1d1b)" d="M19.555 10.825c0.34-0.153 0.737-0.242 1.155-0.242 1.122 0 2.094 0.643 2.568 1.581l0.008 0.016c0.207 0.362 0.33 0.797 0.33 1.259 0 0.99-0.56 1.85-1.381 2.279l-0.014 0.007c-1.060 0.455-3.125 0.725-4-0.585s-0.56-3.25 1.335-4.315z"></path>
<path fill="#fff" style="fill: var(--color3, #fff)" d="M20.885 11.12c0.797 0.109 1.461 0.599 1.809 1.277l0.006 0.013c0.54 1.085 0.335 1.75-0.040 2.27-0.523 0.595-1.286 0.968-2.136 0.968-0.227 0-0.447-0.027-0.659-0.077l0.019 0.004c-0.738-0.148-1.308-0.73-1.433-1.464l-0.002-0.011c-0.040-0.315-0.085-0.855 0-0.855s0.665 1.185 0.835 1.145 0.33-0.415 0.27-0.5c-0.286-0.392-0.55-0.836-0.769-1.306l-0.021-0.049c0.060-0.060 0.27-0.56 0.375-0.435s0.665 1.625 0.79 1.54 0.335-0.46 0.25-0.605-0.77-1.25-0.665-1.355 0.58-0.455 0.665-0.375 0.355 1.085 0.5 1.105c0.006 0 0.013 0.001 0.020 0.001 0.166 0 0.3-0.134 0.3-0.3 0-0.004-0-0.008-0-0.011l0 0.001c-0.030-0.15-0.26-0.94-0.115-0.98z"></path>
<path fill="#1d1d1b" style="fill: var(--color1, #1d1d1b)" d="M8.035 16.7c-0.065-0.15 0.25-0.435 0.415-0.29s0.935 1.565 0.79 1.665-0.27 0.17-0.375 0.125c-0.289-0.428-0.566-0.92-0.803-1.434l-0.027-0.066zM8.805 15.43c0.030-0.145 0.27-0.33 0.415-0.25 0.38 0.632 0.719 1.363 0.977 2.13l0.023 0.080c0.003 0.017 0.005 0.038 0.005 0.058 0 0.159-0.107 0.294-0.252 0.336l-0.002 0.001c-0.419-0.67-0.811-1.446-1.131-2.257l-0.034-0.098zM9.72 14.39c-0.030-0.1 0.27-0.375 0.395-0.29 0.339 0.557 0.599 1.205 0.743 1.895l0.007 0.040c-0.040 0.29-0.185 0.46-0.29 0.375-0.273-0.535-0.562-1.201-0.812-1.886l-0.043-0.134zM10.845 13.805c0-0.12 0.415-0.185 0.5-0.125 0.145 0.27 0.23 0.591 0.23 0.932 0 0.010-0 0.020-0 0.030l0-0.002c-0.085 0.185-0.21 0.375-0.335 0.23-0.184-0.307-0.321-0.664-0.392-1.045l-0.003-0.020zM15.95 16.91c0.107-0.047 0.232-0.075 0.363-0.075 0.505 0 0.915 0.41 0.915 0.915 0 0.042-0.003 0.084-0.008 0.125l0.001-0.005c0 0.955-1.27 1-1.71 0.625s-0.35-1.21 0.44-1.585z"></path>
<path fill="#fff" style="fill: var(--color3, #fff)" d="M16.12 17.42c0.039-0.016 0.085-0.025 0.133-0.025 0.204 0 0.37 0.166 0.37 0.37 0 0.016-0.001 0.031-0.003 0.046l0-0.002c0 0.395-0.5 0.41-0.695 0.255s-0.13-0.49 0.195-0.645z"></path>
<path fill="#1d1d1b" style="fill: var(--color1, #1d1d1b)" d="M24.69 15.465c0.134-0.060 0.29-0.094 0.455-0.094 0.632 0 1.145 0.513 1.145 1.145 0 0.053-0.004 0.104-0.010 0.155l0.001-0.006c0 1.195-1.59 1.25-2.135 0.78s-0.445-1.51 0.545-1.98z"></path>
<path fill="#fff" style="fill: var(--color3, #fff)" d="M24.85 15.945c0.075-0.034 0.163-0.054 0.256-0.054 0.351 0 0.635 0.284 0.635 0.635 0 0.029-0.002 0.059-0.006 0.087l0-0.003c0 0.67-0.885 0.695-1.19 0.435-0.109-0.119-0.175-0.279-0.175-0.454 0-0.303 0.2-0.56 0.475-0.645l0.005-0.001z"></path>
<path fill="#1d1d1b" style="fill: var(--color1, #1d1d1b)" d="M12.115 22c0.59-0.27 1.895 0.125 1.625 1.25s-1.58 0.81-2 0.455c-0.207-0.184-0.336-0.451-0.336-0.748 0-0.449 0.296-0.829 0.704-0.955l0.007-0.002z"></path>
<path fill="#fff" style="fill: var(--color3, #fff)" d="M12.305 22.37c0.36-0.165 1.165 0.075 1 0.77s-0.97 0.5-1.225 0.28c-0.123-0.114-0.2-0.277-0.2-0.458 0-0.273 0.176-0.506 0.42-0.591l0.004-0.001z"></path>
<path fill="#1d1d1b" style="fill: var(--color1, #1d1d1b)" d="M17.845 21.43c0.435-0.16 0.835 0.395 1.77 0.125s2.020-0.705 2.885-0.555c0.566 0.009 1.035 0.413 1.144 0.947l0.001 0.008c0.007 0.076 0.012 0.163 0.012 0.252 0 0.384-0.080 0.749-0.224 1.081l0.007-0.018c-0.445 0.446-0.914 0.867-1.407 1.259l-0.033 0.026c-0.455 0.44-0.73 0.855-1.23 0.77s-0.85-0.415-1.625-0.435c-0.077 0.006-0.166 0.009-0.257 0.009-0.462 0-0.903-0.088-1.307-0.248l0.024 0.008c-0.395-0.185-1.21-0.875-1.165-1.375 0.227-0.789 0.728-1.436 1.391-1.847l0.014-0.008z"></path>
<path fill="#fff" style="fill: var(--color3, #fff)" d="M17.615 22.265s0.045 1.21 0.17 1.25 0.33 0.060 0.33-0.040-0.165-1.5 0-1.525 0.355 0.025 0.375 0.085-0.040 1.565 0.125 1.585 0.335 0.080 0.335 0v-1.5s0.25 0 0.29 0.060 0 1.5 0.17 1.545 0.33 0 0.33-0.105c-0.035-0.32-0.055-0.691-0.055-1.066 0-0.195 0.005-0.388 0.016-0.58l-0.001 0.027c0.085 0 0.5-0.23 0.5-0.145s0 1.205 0.105 1.205 0.415 0 0.415-0.145-0.105-1.105 0-1.165 0.585-0.25 0.605-0.165-0.040 0.81 0.045 0.81 0.33 0 0.33-0.145 0-0.77 0.085-0.79 1.125 0 1.25 0.27c0.069 0.192 0.11 0.413 0.11 0.644 0 0.155-0.018 0.305-0.052 0.45l0.003-0.013c-0.080 0.125-0.895 0.71-1.27 1.17s-0.665 0.79-0.955 0.81-0.855-0.355-1.335-0.435-1.27 0-1.71-0.21c-0.344-0.134-0.6-0.425-0.684-0.782l-0.001-0.008c0.067-0.418 0.235-0.788 0.479-1.095l-0.004 0.005z"></path>
<path fill="#1d1d1b" style="fill: var(--color1, #1d1d1b)" d="M18.16 18.62c-0.135-0.090 0.395-0.23 0.5-0.145s0.775 1.685 0.625 1.79c-0.14 0.066-0.305 0.105-0.478 0.105-0.008 0-0.015-0-0.023-0l0.001 0s-0.565-1.71-0.625-1.75zM18.91 17.66c0.070-0.075 0.375-0.31 0.5-0.21 0.252 0.544 0.41 1.178 0.435 1.846l0 0.009c-0.105 0.125-0.455 0.21-0.5 0.085-0.165-0.476-0.316-1.058-0.424-1.655l-0.011-0.075zM20.16 17.245c0.060-0.085 0.35-0.19 0.395-0.045 0.113 0.474 0.18 1.020 0.185 1.581l0 0.004c-0.080 0.065-0.395 0.21-0.455 0.040-0.083-0.398-0.13-0.856-0.13-1.325 0-0.090 0.002-0.179 0.005-0.268l-0 0.013zM22.885 19.765c0.070 0.065 1.575 1.070 1.575 1.335s-0.030 0.5-0.365 0.27c-0.565-0.381-1.054-0.758-1.519-1.161l0.019 0.016c0-0.105 0.25-0.5 0.29-0.46zM23 18.85c-0.025-0.115 0.23-0.315 0.355-0.275s1.895 1.835 1.795 1.92-0.21 0.25-0.315 0.25c-0.674-0.575-1.276-1.195-1.814-1.868l-0.021-0.027zM24.035 18.325s0.205-0.35 0.375-0.25 1.375 1.42 1.33 1.565-0.27 0.395-0.375 0.335-1.27-1.585-1.33-1.65z"></path>
</symbol>
<symbol id="enemyLvl2" viewBox="0 0 32 32">
<path fill="#1d1d1b" style="fill: var(--color1, #1d1d1b)" d="M7.28 16.725c-1.84-3.36-1.375-6.625-0.585-9s3.71-5.225 7.335-5.855 6.47-0.33 9.54 2.94 2.43 8.81 1.855 10.23-1.425 3.895-3.705 5.29c-1.253 0.799-2.725 1.384-4.303 1.66l-0.072 0.010v0.96s1 0.060 1.15 0.335c0.080 0.364 0.126 0.782 0.126 1.211 0 0.042-0 0.084-0.001 0.126l0-0.006s5.88-3.085 5.88-3.21-0.145-1.835 0-2 1-0.275 1.835-0.275 1.665 0.525 1.665 0.755 0.395 7.645 0.205 7.81c-0.247 0.125-0.537 0.208-0.843 0.23l-0.007 0s-0.355 2.5-0.94 2.46-1.415-2.23-1.415-2.23-0.585 0.080-0.625-0.125-0.18-3.040-0.18-3.040l-5.435 2.81s0.125 1.415-0.065 1.5-5.225 0.5-5.375 0.065c-0.099-0.436-0.158-0.939-0.165-1.455l-0-0.005s-2.435-1.415-3.46-1.915-1.5-0.685-1.5-0.685c0.020 0.28 0.032 0.608 0.032 0.938s-0.012 0.657-0.034 0.981l0.002-0.044c-0.080 0.165-0.5 0.185-0.5 0.185s-0.5 2.315-1.395 2.375-1.75-2.1-1.75-2.1-0.55-0.215-0.55-0.32-0.335-7.915-0.21-8.040 0.805-0.585 2.21-0.565 1.895 0.605 1.935 0.855 0.085 2.75 0.085 2.75l4.615 2.17s-0.040-1.19 0.375-1.4c0.27-0.107 0.583-0.169 0.911-0.169 0.052 0 0.104 0.002 0.156 0.005l-0.007-0-0.060-1s-3.98-0.19-6.73-5.21z"></path>
<path fill="#e6e4da" style="fill: var(--color2, #e6e4da)" d="M15.55 2.77c3-0.285 5.895 0.54 7.795 3.040s1.935 7.645 0.81 10-2.685 4.625-5.355 5.19-6.77 0.17-8.77-2.165-3.415-5.645-3-8.395 2.565-7.11 8.52-7.67z"></path>
<path fill="#1d1d1b" style="fill: var(--color1, #1d1d1b)" d="M12.595 8.79c0.745-0.645 2.935-1.145 4.25-1.315s2.35 0.44 2.145 2-0.815 5.25-1.815 5.96-2.605 0.455-2.915 0.105-1.73-4-1.895-4.67-0.365-1.56 0.23-2.080z"></path>
<path fill="#92a0d1" style="fill: var(--color7, #92a0d1)" d="M13.595 9.060c0.295-0.17 3.75-1 4.145-0.69s0 1.775 0 1.775-0.415-0.23-0.5-0.17-0.315 0.25-0.165 0.335 0.54 0.145 0.54 0.25c-0.026 0.192-0.063 0.361-0.111 0.525l0.006-0.025s-1.085-0.585-1.165-0.42-0.125 0.19-0.045 0.275 1.17 0.375 1.15 0.54-0.065 0.395-0.065 0.395c-0.412-0.19-0.91-0.374-1.424-0.521l-0.076-0.019c-0.040 0.060-0.165 0.33-0.105 0.395s1.46 0.5 1.44 0.645-0.105 0.46-0.105 0.46c-0.42-0.225-0.917-0.436-1.432-0.606l-0.068-0.019c-0.040 0.080-0.165 0.27-0.040 0.355s1.54 0.625 1.5 0.725-0.085 0.4-0.17 0.375-1.455-0.685-1.58-0.6-0.19 0.31-0.085 0.375c0.63 0.231 1.159 0.475 1.665 0.756l-0.060-0.031c0 0.105 0 0.315-0.085 0.335s-1.395-0.5-1.46-0.46-0.165 0.25 0 0.355 1.355 0.355 1.25 0.46c-0.274 0.162-0.602 0.261-0.952 0.27l-0.003 0c-0.4 0-0.585 0.085-1.15-1.23-0.5-1.113-0.93-2.421-1.225-3.78l-0.025-0.135c0-0.455-0.040-0.645 0.4-0.895z"></path>
<path fill="#1d1d1b" style="fill: var(--color1, #1d1d1b)" d="M14.445 3.77c0.030-0.085 0.42-0.125 0.5 0 0.184 0.65 0.317 1.411 0.373 2.193l0.002 0.037c-0.080 0.105-0.27 0.21-0.31 0.125-0.197-0.62-0.393-1.413-0.544-2.221l-0.021-0.134zM17.050 3.56c0.056-0.036 0.123-0.057 0.196-0.057 0.126 0 0.237 0.064 0.303 0.161l0.001 0.001c0.011 0.145 0.018 0.314 0.018 0.485 0 0.605-0.081 1.19-0.234 1.747l0.011-0.046c-0.125 0.045-0.315 0.045-0.335-0.040-0.013-0.246-0.020-0.535-0.020-0.825 0-0.502 0.022-0.998 0.065-1.488l-0.004 0.064zM20.82 5.37c0.16-0.105 0.46 0.375 0.295 0.5s-1.42 1.25-1.5 1.23-0.295-0.060-0.21-0.145 1.355-1.54 1.415-1.585zM19.97 9.56c0-0.065 2.455-0.625 2.56-0.5s0.29 0.395 0.085 0.46c-0.724 0.172-1.624 0.325-2.541 0.426l-0.104 0.009c-0.085-0.040 0.030-0.31 0-0.395zM20.050 11.645c0.080-0.040 3.145 0.145 3.145 0.29s0.125 0.29-0.060 0.31c-1.112-0.029-2.172-0.117-3.214-0.262l0.149 0.017c-0.1-0.065-0.185-0.275-0.020-0.355zM20 14.040c0.080-0.030 2.31 0.665 2.25 0.83s-0.105 0.295-0.21 0.295c-0.889-0.237-1.637-0.5-2.359-0.812l0.109 0.042c-0.135-0.125 0.075-0.315 0.21-0.355zM18.615 16.040c0.075-0.055 2.23 2.205 2.145 2.31s-0.25 0.295-0.375 0.25-2.21-2.23-2.125-2.33c0.102-0.091 0.219-0.169 0.346-0.227l0.009-0.003zM15.115 17.165c0.84-0.5 2.5 0.040 2.165 1.605-0.145 0.689-0.747 1.2-1.47 1.2-0.429 0-0.816-0.18-1.090-0.469l-0.001-0.001c-0.225-0.268-0.361-0.617-0.361-0.998 0-0.565 0.3-1.059 0.749-1.333l0.007-0.004z"></path>
<path fill="#f2910d" style="fill: var(--color8, #f2910d)" d="M15.38 17.645c0.134-0.080 0.295-0.127 0.467-0.127 0.511 0 0.925 0.414 0.925 0.925 0 0.072-0.008 0.141-0.023 0.208l0.001-0.006c-0.077 0.454-0.467 0.795-0.937 0.795-0.27 0-0.514-0.113-0.687-0.294l-0-0c-0.145-0.172-0.233-0.396-0.233-0.641 0-0.363 0.194-0.681 0.483-0.856l0.004-0.003z"></path>
<path fill="#1d1d1b" style="fill: var(--color1, #1d1d1b)" d="M12.115 15.935c0.13-0.025 0.31 0.060 0.27 0.23-0.49 0.672-1.031 1.259-1.632 1.779l-0.013 0.011c-0.125 0-0.375-0.085-0.315-0.23s1.46-1.725 1.69-1.79zM8.57 14.27c0.035-0.195 2.335-1.025 2.44-0.92s0.23 0.355 0.105 0.42-2.295 0.975-2.375 0.955-0.19-0.33-0.17-0.455zM7.905 10.81c1.078 0.128 2.026 0.303 2.951 0.534l-0.161-0.034c0.085 0.080 0.15 0.23 0.025 0.27s-2.94-0.315-2.94-0.315 0.020-0.395 0.125-0.455zM8.78 8c0.080-0.030 2.27 0.725 2.27 0.85s-0.125 0.375-0.205 0.355-2.125-0.705-2.21-0.75 0.020-0.395 0.145-0.455zM11.32 5.31c0-0.075 0.355-0.355 0.46-0.29s1.625 1.83 1.5 2-0.29 0.295-0.355 0.23-1.58-1.835-1.605-1.94z"></path>
<path fill="#ddc07c" style="fill: var(--color9, #ddc07c)" d="M14.615 22.040c0.055-0.040 0.5 0.080 1.185 0.145s0.94-0.145 1 0c0.031 0.125 0.048 0.269 0.048 0.418s-0.018 0.292-0.051 0.43l0.003-0.012c-0.060 0-0.895-0.085-1.375-0.065s-0.77 0.105-0.79 0-0.135-0.835-0.020-0.915z"></path>
<path fill="#e6e4da" style="fill: var(--color2, #e6e4da)" d="M4.675 19.725c0.115-0.17 0.895-0.31 1.5-0.29s1 0.29 1.065 0.46 0.21 6.375 0 6.415c-0.043-0.001-0.094-0.001-0.145-0.001-0.479 0-0.947 0.046-1.401 0.134l0.046-0.007c-0.5 0.165-0.855 0.31-0.855 0.31s-0.335-6.83-0.21-7.020z"></path>
<path fill="#1d1d1b" style="fill: var(--color1, #1d1d1b)" d="M5.28 20.1c0.155-0.15 0.5-0.125 0.54 0s0.105 1.605-0.040 1.75-0.54 0.145-0.54 0c-0.014-0.196-0.022-0.424-0.022-0.654 0-0.386 0.023-0.767 0.066-1.141l-0.004 0.045z"></path>
<path fill="#f2910d" style="fill: var(--color8, #f2910d)" d="M5.22 27.5c0-0.215 0.625-0.355 1.145-0.33s0.79 0.125 0.79 0.25-0.5 1.725-0.81 1.79-1.125-1.4-1.125-1.71z"></path>
<path fill="#ddc07c" style="fill: var(--color9, #ddc07c)" d="M8.22 23.12c0.12-0.090 4.645 2.045 4.645 2.15 0.035 0.329 0.055 0.711 0.055 1.098 0 0.2-0.005 0.398-0.016 0.595l0.001-0.027c-0.085 0.040-0.355-0.125-0.355-0.125 0.004-0.084 0.006-0.183 0.006-0.282 0-0.363-0.031-0.719-0.092-1.065l0.005 0.037c-0.105-0.040-0.5-0.040-0.5 0.045s0.185 1.165 0.080 1.125-0.6-0.275-0.6-0.355 0.1-0.71 0-0.75-0.46-0.23-0.44-0.125 0 0.645 0 0.645-2.83-1.125-2.83-1.25c-0.010-0.178-0.016-0.387-0.016-0.597 0-0.394 0.020-0.783 0.060-1.166l-0.004 0.048z"></path>
<path fill="#e6e4da" style="fill: var(--color2, #e6e4da)" d="M13.74 23.895c0.075-0.12 3.915-0.21 3.955 0 0.048 0.371 0.076 0.799 0.076 1.235 0 0.165-0.004 0.33-0.012 0.494l0.001-0.023c-0.065-0.040-0.5-0.5-0.565-0.415s-0.205 0.29-0.145 0.355 0.77 0.54 0.795 0.705 0.040 0.69 0.040 0.69-0.77-0.935-0.885-0.895-0.27 0.29-0.19 0.375c0.39 0.407 0.765 0.841 1.117 1.293l0.028 0.037c0.065 0.15 0.17 0.73 0.045 0.75-0.069 0.017-0.148 0.027-0.23 0.027s-0.161-0.010-0.237-0.028l0.007 0.001c-0.060-0.040-1-1.455-1.085-1.455s-0.29 0.125-0.27 0.185c0.257 0.365 0.503 0.783 0.716 1.22l0.024 0.055c-0.097 0.025-0.208 0.040-0.323 0.040s-0.226-0.014-0.332-0.042l0.009 0.002c-0.218-0.38-0.445-0.707-0.695-1.013l0.010 0.013c-0.105 0-0.46 0.145-0.4 0.25s0.4 0.71 0.315 0.73-1.29 0.165-1.44 0-0.415-4.48-0.33-4.585z"></path>
<path fill="#1d1d1b" style="fill: var(--color1, #1d1d1b)" d="M14.405 24.435c0.11-0.055 0.355-0.125 0.395 0.040s0.17 1.5 0 1.545-0.27 0.205-0.35 0.040-0.17-1.56-0.045-1.625z"></path>
<path fill="#ddc07c" style="fill: var(--color9, #ddc07c)" d="M18.8 25.1c0.145-0.040 5.46-3.060 5.5-2.935 0.046 0.481 0.073 1.039 0.073 1.604 0 0.183-0.003 0.366-0.008 0.547l0.001-0.027c-1.046 0.658-2.282 1.326-3.563 1.915l-0.207 0.085c0-0.105 0.080-1.145 0-1.19s-0.33-0.080-0.33 0 0.105 1.355 0 1.375-0.5 0.375-0.5 0.25c0.001-0.043 0.001-0.095 0.001-0.146 0-0.448-0.031-0.888-0.092-1.319l0.006 0.050c-0.060 0-0.5 0.145-0.5 0.27s0.19 1.315 0.065 1.395c-0.135 0.079-0.299 0.163-0.468 0.238l-0.032 0.012s-0.090-2.080 0.055-2.125z"></path>
<path fill="#e6e4da" style="fill: var(--color2, #e6e4da)" d="M25.24 19.87c0.115-0.18 0.81-0.040 1.31 0.065 0.251 0.040 0.476 0.113 0.684 0.216l-0.014-0.006s0.080 5.35 0 5.27-0.5-0.585-0.625-0.585-0.25 0.355-0.21 0.44 0.79 0.56 0.815 0.685c0.005 0.056 0.008 0.122 0.008 0.188s-0.003 0.131-0.009 0.196l0.001-0.008s-0.875-0.73-0.96-0.685-0.21 0.35-0.105 0.435c0.415 0.313 0.783 0.64 1.121 0.996l0.004 0.004c0 0.105 0 0.25-0.145 0.19s-0.94-0.77-1.115-0.73c-0.127 0.048-0.215 0.168-0.215 0.309 0 0.045 0.009 0.089 0.026 0.128l-0.001-0.002c0.126 0.119 0.263 0.229 0.409 0.328l0.011 0.007s-0.775 0.27-0.855 0.105-0.24-7.375-0.135-7.545z"></path>
<path fill="#f2910d" style="fill: var(--color8, #f2910d)" d="M25.595 28c0-0.165 0.77-0.105 0.955-0.125 0.144 0.002 0.276 0.056 0.376 0.145l-0.001-0s-0.355 1.565-0.56 1.585-0.75-1.4-0.77-1.605z"></path>
</symbol>
<symbol id="enemyLvl3" viewBox="0 0 32 32">
<path fill="#1d1d1b" style="fill: var(--color1, #1d1d1b)" d="M8.945 7.29c0.901-1.526 2.317-2.667 4.005-3.192l0.050-0.013c0.778-0.252 1.674-0.398 2.603-0.398 1.403 0 2.728 0.332 3.902 0.921l-0.050-0.023c1.046 0.661 1.926 1.482 2.631 2.439l0.018 0.026s3.1 0.555 5.3 2.36 3.3 3.68 3.24 5.425-2 3.865-2.87 4.62c-0.633 0.52-1.336 1.016-2.076 1.457l-0.078 0.043 1.38 3.935c0.747 0.176 1.324 0.753 1.497 1.486l0.003 0.014c0.245 1.235-1.28 1.85-2.14 1.31s-0.865-1.065-0.77-1.5c0.089-0.368 0.214-0.691 0.376-0.992l-0.011 0.022s-2.755-3.23-2.8-3.205-0.525 0.46-2.56 0.815c-0.87 0.173-1.946 0.32-3.039 0.408l-0.106 0.007-0.135 1.635c0.37 0.219 0.615 0.616 0.615 1.071 0 0.095-0.011 0.188-0.031 0.278l0.002-0.008c-0.125 1-1.775 1.16-2.465 0.635s-0.435-1.405-0.205-1.79c0.153-0.233 0.385-0.403 0.657-0.473l0.008-0.002-0.355-1.325c-1.043-0.069-2.011-0.224-2.948-0.459l0.113 0.024c-1.74-0.4-2.635-0.645-2.635-0.645l-3.205 3.805c0.306 0.235 0.502 0.602 0.502 1.014 0 0.134-0.021 0.264-0.059 0.385l0.002-0.009c-0.185 1-1.785 1.185-2.62 0.5s-0.155-1.82 0.17-2.095c0.202-0.168 0.446-0.291 0.713-0.353l0.012-0.002 2-4.455c-1.557-0.811-2.869-1.882-3.928-3.168l-0.017-0.022c-1.875-2.295-2.385-5-2.295-5.835s1.85-2.605 3.655-3.42c1.117-0.493 2.435-0.923 3.802-1.224l0.143-0.026z"></path>
<path fill="#8ec480" style="fill: var(--color5, #8ec480)" d="M8.235 8.14c0.065 0.030 0.095 0.155 0.095 0.155-0.331 0.818-0.599 1.777-0.76 2.772l-0.010 0.078c-0.030 0.25-0.047 0.54-0.047 0.834 0 0.528 0.055 1.043 0.161 1.54l-0.009-0.048c0.060 0.080 1.5 2.115 5.38 2.715 0.754 0.119 1.623 0.188 2.508 0.188 2.075 0 4.063-0.375 5.899-1.061l-0.116 0.038c0.727-0.32 1.339-0.777 1.83-1.344l0.005-0.006c0.207-0.334 0.33-0.739 0.33-1.173 0-0.006-0-0.012-0-0.018v0.001c0.011-0.169 0.017-0.366 0.017-0.565 0-0.64-0.062-1.266-0.182-1.871l0.010 0.061c-0.156-0.839-0.329-1.539-0.538-2.223l0.038 0.143c1.165 0.24 2.199 0.663 3.124 1.243l-0.039-0.023c1.14 0.83 3.28 2.415 3.19 4.56s-2.7 3.56-3.915 4.070-5.35 2.295-10.080 1.895-6.72-1.065-9.4-2.93-3.080-3.105-3.3-4.070c-0.385-1.71 1.325-3.035 2.36-3.6 0.934-0.457 2.075-0.918 3.251-1.304l0.199-0.056z"></path>
<path fill="#e6e4da" style="fill: var(--color2, #e6e4da)" d="M8.56 13.115c-0.042-0.306-0.067-0.659-0.067-1.018 0-1.143 0.245-2.228 0.686-3.206l-0.020 0.049q1.41-2.93 4-3.885c0.771-0.302 1.663-0.478 2.596-0.478 1.050 0 2.048 0.222 2.95 0.621l-0.047-0.018c1.584 0.707 2.785 2.031 3.313 3.657l0.012 0.043c0.318 1.316 0.5 2.826 0.5 4.379 0 0.009 0 0.018-0 0.027v-0.001c-0.001 0.164-0.042 0.319-0.113 0.456l0.003-0.006s-2.555-2.28-2.665-2.28-0.415 0.245-0.325 0.35 2.615 2.035 2.55 2.145c-0.204 0.139-0.439 0.259-0.688 0.348l-0.022 0.007s-1.925-1.71-2.065-1.71-0.37 0.245-0.305 0.29 2.035 1.575 1.955 1.65c-0.226 0.136-0.489 0.239-0.77 0.293l-0.015 0.002c-0.465-0.463-0.954-0.903-1.464-1.317l-0.036-0.028c-0.125 0-0.325 0.155-0.26 0.25s1.375 1.215 1.28 1.265-0.875 0.235-0.875 0.235-0.97-0.895-1.035-0.895-0.355 0.090-0.32 0.2 0.815 0.83 0.755 0.865c-0.759 0.185-1.631 0.291-2.527 0.291-1.207 0-2.369-0.193-3.457-0.549l0.079 0.022c-3.235-0.99-3.605-2.055-3.605-2.055z"></path>
<path fill="#1d1d1b" style="fill: var(--color1, #1d1d1b)" d="M19.81 10c0.814 0.585 1.528 1.172 2.203 1.802l-0.013-0.012c-0.003 0.114-0.032 0.22-0.082 0.314l0.002-0.004s-2.205-1.6-2.22-1.68c0-0.154 0.041-0.299 0.112-0.424l-0.002 0.004zM20.070 9.295s0.185-0.31 0.265-0.325c0.583 0.398 1.092 0.829 1.552 1.307l0.003 0.003c0 0.125 0.030 0.355 0 0.325s-1.805-1.31-1.82-1.31zM20.44 7.77c0.366 0.151 0.681 0.343 0.961 0.575l-0.006-0.005c0.050 0.125 0.095 0.295 0.035 0.31-0.401-0.155-0.747-0.342-1.066-0.565l0.016 0.010c-0-0.005-0-0.011-0-0.018 0-0.111 0.022-0.216 0.062-0.313l-0.002 0.005zM10.425 8.525c0.219-0.644 0.561-1.195 1.001-1.651l-0.001 0.001c0.74-0.755 1.435-1.095 1.555-1.030s0.185 0.245 0.11 0.275c-0.571 0.322-1.044 0.752-1.406 1.267l-0.009 0.013c-0.5 0.77-0.575 1.385-0.68 1.4-0.218-0.059-0.408-0.153-0.574-0.278l0.004 0.003zM13.165 8.125c0.15-0.040 0.31 0.17 0.28 0.445-0.050 0.315-0.078 0.679-0.078 1.049 0 0.64 0.085 1.261 0.245 1.85l-0.011-0.049c0.385 1.435 0.37 2.39 0.2 2.5-0.173 0.019-0.373 0.030-0.576 0.030-0.56 0-1.099-0.084-1.608-0.241l0.039 0.010c-0.875-0.25-1.155-0.525-1.125-1.080 0.158-1.040 0.523-1.972 1.052-2.787l-0.017 0.027c0.426-0.693 0.96-1.276 1.584-1.743l0.016-0.012z"></path>
<path fill="#fff" style="fill: var(--color3, #fff)" d="M12.69 9.435c0.075 0 0.045 1.17 0.275 2.14s0.355 1.635 0.22 1.725c-0.007 0-0.016 0-0.025 0-0.563 0-1.107-0.079-1.622-0.225l0.042 0.010c-0.34-0.075-0.5-0.155-0.5-0.385 0.121-0.719 0.308-1.361 0.562-1.969l-0.022 0.059c0.3-0.6 0.88-1.34 1.070-1.355z"></path>
<path fill="#1d1d1b" style="fill: var(--color1, #1d1d1b)" d="M3.615 13.27c-0.075-0.24-0.118-0.516-0.118-0.802 0-0.336 0.060-0.659 0.169-0.958l-0.006 0.019c0.358-0.715 0.979-1.254 1.734-1.494l0.021-0.006c0.17 0 0.28 0.23 0.215 0.28s-1.245 0.5-1.4 1.26 0.26 1.73 0.2 1.835-0.74-0.055-0.815-0.135zM26.22 10.865c0.698 0.412 1.292 0.82 1.857 1.263l-0.037-0.028c0.002 0.010 0.003 0.021 0.003 0.032 0 0.084-0.052 0.155-0.126 0.183l-0.001 0c-0.686-0.307-1.271-0.641-1.821-1.024l0.036 0.024c0.003-0.163 0.036-0.317 0.093-0.459l-0.003 0.009zM25.805 12.255c0.846 0.575 1.586 1.167 2.276 1.81l-0.011-0.010c0 0.125-0.045 0.235-0.125 0.235s-2.235-1.465-2.28-1.545c0.001-0.181 0.053-0.351 0.142-0.494l-0.002 0.004zM25.31 13.55c0.976 0.524 1.814 1.076 2.597 1.693l-0.037-0.028c0 0.090-0.125 0.305-0.17 0.275s-2.745-1.37-2.7-1.465c0.093-0.181 0.196-0.336 0.314-0.479l-0.004 0.004zM24.325 14.645c0.090 0 2.525 1.26 2.5 1.37s-0.090 0.245-0.185 0.215-2.64-1.17-2.575-1.23 0.185-0.34 0.26-0.355zM23.54 15.83c0.764 0.407 1.405 0.805 2.018 1.239l-0.058-0.039c-0.075 0.065-0.105 0.11-0.2 0.125-0.785-0.314-1.443-0.64-2.072-1.009l0.072 0.039c0.050-0.142 0.133-0.261 0.239-0.354l0.001-0.001zM22.645 16.91c0.653 0.308 1.214 0.651 1.733 1.047l-0.023-0.017c-0.075 0.045-0.185 0.14-0.26 0.14-0.681-0.295-1.254-0.6-1.8-0.942l0.055 0.032c0.081-0.104 0.179-0.191 0.29-0.257l0.005-0.003zM21.365 17.725c0.479 0.259 0.888 0.524 1.274 0.818l-0.024-0.018s-0.185 0.14-0.245 0.125c-0.478-0.241-0.877-0.477-1.26-0.736l0.040 0.026c0-0.045 0.14-0.185 0.215-0.215z"></path>
<path fill="#c8db89" style="fill: var(--color4, #c8db89)" d="M4.335 17.2c0.070-0.070 2.405 1.74 4.81 2.635s4.070 1.035 7.355 1.165c0.188 0.007 0.408 0.011 0.629 0.011 2.742 0 5.345-0.595 7.687-1.663l-0.116 0.047c2-0.895 3.145-1.71 3.235-1.605s-1.14 1.56-3 2.42-4.19 2.095-8.090 2.115-6.665-0.58-8.845-1.855-3.8-3.13-3.665-3.27z"></path>
<path fill="#fab900" style="fill: var(--color6, #fab900)" d="M8.095 21.285c0.539 0.207 1.004 0.482 1.413 0.822l-0.008-0.007c-0.045 0.050-2.88 3.545-3 3.56s-0.325 0-0.325-0.060 1.825-4.24 1.92-4.315zM5.525 26.080c0.41-0.040 1.325 0.335 1.295 1s-1.080 0.755-1.56 0.54-0.57-1.465 0.265-1.54zM16.080 23.32c0.048-0.001 0.105-0.002 0.161-0.002 0.253 0 0.503 0.011 0.751 0.034l-0.032-0.002c-0.040 0.495-0.106 0.943-0.198 1.381l0.012-0.072c-0.050 0-0.385 0-0.4-0.030s-0.295-1.31-0.295-1.31zM15.955 25.215c0.12-0.058 0.261-0.093 0.409-0.093 0.416 0 0.77 0.268 0.899 0.641l0.002 0.007c0.28 0.74-0.875 1-1.295 0.71s-0.505-1.095-0.015-1.265zM23.785 21.885c0.391-0.22 0.845-0.414 1.321-0.557l0.049-0.013c0 0.045 1.16 3.33 1.065 3.36s-0.060 0.17-0.17 0-2.28-2.745-2.265-2.79zM26.5 25.615c0.049-0.006 0.105-0.009 0.162-0.009 0.523 0 0.98 0.287 1.22 0.712l0.004 0.007c0.035 0.086 0.056 0.185 0.056 0.29 0 0.431-0.349 0.78-0.78 0.78-0.16 0-0.31-0.048-0.434-0.132l0.003 0.002c-0.77-0.43-0.635-1.54-0.23-1.65z"></path>
</symbol>
<symbol id="enemyLvl4" viewBox="0 0 32 32">
<path fill="#1d1d1b" style="fill: var(--color1, #1d1d1b)" d="M8.375 14.185c0.3-1.228 0.882-2.293 1.675-3.161l-0.005 0.005c0.785-0.881 1.772-1.566 2.89-1.984l0.050-0.016c0.265-0.075 1.42-0.17 1.42-0.17s0-0.875 0.39-1c0.249-0.087 0.54-0.154 0.841-0.188l0.019-0.002v-1.42s-0.765-0.14-0.89-0.78 0.345-1.22 1.235-1.19 1.28 0.625 1.105 1.265c-0.147 0.396-0.493 0.685-0.914 0.749l-0.006 0.001-0.030 1.345s1.030 0 1.060 0.61 0.035 0.67 0.035 0.67 2.355 0 3.84 1.53c0.883 0.859 1.646 1.836 2.266 2.906l0.034 0.064c0.029 0.209 0.045 0.45 0.045 0.695 0 0.025-0 0.049-0 0.073l0-0.004c1.77 0.292 3.354 0.9 4.761 1.767l-0.056-0.032c2 1.345 2.61 2.205 2.5 4.28-0.051 1.904-1.037 3.567-2.514 4.552l-0.021 0.013c-1.42 0.935-3.045 2.5-7.965 2.875-0.656 0.056-1.419 0.088-2.189 0.088-3.393 0-6.641-0.617-9.639-1.745l0.189 0.062c-3-1.045-5.11-2.2-6.36-3.905-0.482-0.715-0.77-1.595-0.77-2.543 0-0.798 0.204-1.548 0.562-2.201l-0.012 0.024c0.5-0.735 1.94-1.685 3.5-2.295 0.778-0.314 1.763-0.635 2.771-0.899l0.184-0.041z"></path>
<path fill="#cbe7f5" style="fill: var(--color10, #cbe7f5)" d="M9.84 17.53c-0.401-0.613-0.64-1.364-0.64-2.171 0-0.017 0-0.035 0-0.052l-0 0.003c0.212-1.653 0.917-3.111 1.961-4.256l-0.006 0.006c1.002-0.954 2.35-1.553 3.838-1.59l0.007-0c1.575-0.095 3.31 0.215 4.36 0.905 0.491 0.279 0.913 0.611 1.278 0.997l0.002 0.003s-0.675 0-0.69 0.080-0.045 0.355 0 0.375c0.479 0.022 0.93 0.083 1.368 0.18l-0.053-0.010c0.095 0.095 1.125 1.030 1.295 1.97 0.064 0.376 0.1 0.809 0.1 1.25s-0.036 0.874-0.106 1.296l0.006-0.046c-0.060-0.050-2.845-1.345-2.905-1.315s-0.155 0.295-0.11 0.345 2.97 1.265 3 1.405-0.065 0.89-0.065 0.89-2.89-1.435-3-1.36-0.25 0.285-0.17 0.345 3.155 1.375 3.14 1.47-0.405 0.375-0.61 0.47l-0.28 0.125c-0.665-0.432-1.464-0.889-2.287-1.305l-0.153-0.070c-0.105 0.045-0.325 0.14-0.215 0.295s2.185 1.205 2.075 1.31-1.935 0.41-4.545 0.36-5.075-0.185-6.595-1.905zM15.735 4.72c0.535-0.065 0.965 0.2 0.875 0.655s-1.035 0.39-1.235 0.25c-0.096-0.096-0.156-0.229-0.156-0.375 0-0.288 0.229-0.522 0.515-0.53l0.001-0z"></path>
<path fill="#696a9b" style="fill: var(--color11, #696a9b)" d="M15.17 8.81c-0.007 0.001-0.015 0.001-0.023 0.001-0.102 0-0.185-0.083-0.185-0.185 0-0.011 0.001-0.022 0.003-0.033l-0 0.001c0.035-0.16 0.25-0.455 0.845-0.425s0.815 0.175 0.89 0.36 0 0.22-0.185 0.25-1.175 0-1.345 0.030z"></path>
<path fill="#1d1d1b" style="fill: var(--color1, #1d1d1b)" d="M19.92 12.7c0.769 0.244 1.43 0.536 2.053 0.888l-0.053-0.028c0.045 0.11 0.080 0.36 0 0.375-0.78-0.235-1.424-0.478-2.047-0.758l0.107 0.043c-0.105-0.080-0.12-0.5-0.060-0.52zM20 14c0.898 0.328 1.634 0.653 2.345 1.019l-0.115-0.054c0 0.11 0.050 0.25-0.060 0.25-0.892-0.244-1.62-0.493-2.33-0.78l0.14 0.050c-0.075-0.095-0.105-0.485 0.020-0.485zM12.5 11.295c0.209-0.379 0.532-0.673 0.923-0.84l0.012-0.005c0.69-0.295 1.11-0.31 1.205-0.215 0.052 0.057 0.085 0.133 0.085 0.217 0 0.044-0.009 0.087-0.025 0.125l0.001-0.002c-0.462 0.117-0.861 0.262-1.241 0.442l0.041-0.017c-0.33 0.25-0.53 0.545-0.69 0.595s-0.345-0.205-0.31-0.3zM11.67 12.435c0.155-0.050 0.905 0.080 0.905 0.235-0.084 0.319-0.131 0.686-0.131 1.064 0 0.332 0.037 0.655 0.107 0.965l-0.006-0.029c0.28 0.89 0.86 2.22 0.765 2.64-0.083 0.322-0.37 0.556-0.713 0.556-0.034 0-0.068-0.002-0.101-0.007l0.004 0c-0.678-0.131-1.282-0.365-1.826-0.689l0.026 0.014c-0.405-0.28-0.53-0.655-0.465-1.56s0.965-3.030 1.435-3.19z"></path>
<path fill="#e6e4da" style="fill: var(--color2, #e6e4da)" d="M11.84 12.935c0.080 0 0.095 0.065 0.080 0.205-0 0.015-0 0.034-0 0.052 0 0.955 0.131 1.879 0.377 2.755l-0.017-0.072c0.345 1.095 0.42 1.25 0.295 1.31-0.62-0.068-1.185-0.245-1.696-0.512l0.026 0.012c-0.042-0.245-0.066-0.526-0.066-0.814 0-0.398 0.046-0.784 0.133-1.155l-0.007 0.034c0.175-0.94 0.675-1.75 0.875-1.815z"></path>
<path fill="#92a0d1" style="fill: var(--color7, #92a0d1)" d="M8.075 14.935c0.135 0 0.035 2.19 1 3.19s2.425 1.655 4.675 1.95c0.84 0.139 1.808 0.218 2.794 0.218 1.144 0 2.263-0.107 3.347-0.311l-0.112 0.017c1.371-0.269 2.588-0.776 3.664-1.479l-0.039 0.024c0.084-0.065 0.138-0.166 0.14-0.28v-0s0.030-3.030 0.080-3.080 2.75 0.345 4.215 1.5 1.845 1.845 1.8 3.11c-0.075 0.934-0.513 1.754-1.171 2.326l-0.004 0.004c-0.264 0.226-0.561 0.429-0.879 0.597l-0.026 0.013s-2.125-1.675-2.22-1.66-0.31 0.27-0.23 0.36 2.23 1.5 2.125 1.595c-0.228 0.126-0.502 0.252-0.785 0.36l-0.046 0.015s-1.17-0.905-1.235-0.905-0.33 0.2-0.25 0.325 1.080 0.72 1.030 0.77c-2.116 0.659-4.55 1.040-7.072 1.045h-0.003c-0.264 0.007-0.574 0.011-0.886 0.011-3.264 0-6.426-0.438-9.43-1.259l0.25 0.058c-2.188-0.647-4.096-1.534-5.838-2.658l0.088 0.053c-0.438-0.429-0.71-1.026-0.71-1.688s0.272-1.259 0.71-1.687l0-0c1.385-1.197 3.075-2.080 4.936-2.519l0.079-0.016z"></path>
<path fill="#1d1d1b" style="fill: var(--color1, #1d1d1b)" d="M26.375 20.31c0.19-0.055 1.67 1.175 1.64 1.265s-0.155 0.27-0.28 0.22c-0.608-0.373-1.134-0.759-1.626-1.183l0.016 0.013c-0.035-0.125 0.14-0.28 0.25-0.315zM27.25 20c0.060 0 0.325-0.22 0.435-0.205 0.491 0.27 0.912 0.593 1.279 0.969l0.001 0.001c-0.045 0.095-0.075 0.265-0.25 0.22s-1.465-0.985-1.465-0.985zM28.39 19.405c0.060-0.060 0.11-0.265 0.31-0.185s0.425 0.465 0.36 0.545-0.075 0.185-0.14 0.14-0.53-0.5-0.53-0.5zM25.67 17.67c0.162-0.079 0.353-0.126 0.555-0.126 0.654 0 1.193 0.488 1.274 1.12l0.001 0.006c0.2 1.19-1.91 1.44-2.33 0.705-0.122-0.181-0.194-0.403-0.194-0.643 0-0.472 0.282-0.878 0.687-1.059l0.007-0.003z"></path>
<path fill="#cbe7f5" style="fill: var(--color10, #cbe7f5)" d="M26 18.095c0.048-0.010 0.103-0.015 0.159-0.015 0.439 0 0.799 0.334 0.841 0.762l0 0.003c0.060 0.575-1.14 0.7-1.375 0.25-0.054-0.098-0.087-0.214-0.087-0.338 0-0.302 0.19-0.56 0.457-0.66l0.005-0.002z"></path>
<path fill="#1d1d1b" style="fill: var(--color1, #1d1d1b)" d="M21.89 20.89c0.45-0.125 1.405-0.14 1.655 0.595s-0.97 1.465-1.685 1.36c-0.518-0.078-0.91-0.52-0.91-1.054 0-0.009 0-0.018 0-0.028l-0 0.001c0.156-0.426 0.501-0.749 0.93-0.873l0.010-0.002z"></path>
<path fill="#cbe7f5" style="fill: var(--color10, #cbe7f5)" d="M22.215 21.28c0.32-0.030 0.875 0.25 0.705 0.565s-0.83 0.53-1.095 0.28c-0.086-0.090-0.139-0.212-0.139-0.346 0-0.276 0.224-0.5 0.5-0.5 0.010 0 0.020 0 0.030 0.001l-0.001-0z"></path>
<path fill="#1d1d1b" style="fill: var(--color1, #1d1d1b)" d="M15.625 21.375c0.38-0.055 1.965 0.030 2.045 0.81s-0.81 1.595-2.14 1.265c-0.503-0.082-0.882-0.513-0.882-1.032 0-0.553 0.43-1.006 0.974-1.043l0.003-0z"></path>
<path fill="#cbe7f5" style="fill: var(--color10, #cbe7f5)" d="M15.64 21.89c0.030-0.002 0.065-0.003 0.1-0.003 0.385 0 0.741 0.125 1.030 0.336l-0.005-0.003c0.265 0.265 0.030 0.715-0.675 0.7s-1.28-0.825-0.45-1.030z"></path>
<path fill="#1d1d1b" style="fill: var(--color1, #1d1d1b)" d="M9.045 20.11c0.665-0.11 2.315 0.235 2.265 1.295s-2.11 1.28-2.81 0.67c-0.277-0.199-0.455-0.52-0.455-0.883 0-0.569 0.438-1.036 0.996-1.081l0.004-0z"></path>
<path fill="#cbe7f5" style="fill: var(--color10, #cbe7f5)" d="M9 20.67c0.435-0.050 1.56 0.125 1.67 0.655s-0.83 0.77-1.545 0.425-0.41-1.050-0.125-1.080z"></path>
<path fill="#1d1d1b" style="fill: var(--color1, #1d1d1b)" d="M5.465 17.17c0.55-0.035 1.86 0.050 1.595 1.25s-2.11 1.14-2.5 0.33c-0.074-0.143-0.117-0.313-0.117-0.492 0-0.578 0.45-1.051 1.019-1.088l0.003-0z"></path>
<path fill="#cbe7f5" style="fill: var(--color10, #cbe7f5)" d="M5.5 17.685c0.435-0.11 1.095 0.14 0.905 0.675s-0.795 0.5-1.205 0.235-0.025-0.825 0.3-0.91z"></path>
<path fill="#696a9b" style="fill: var(--color11, #696a9b)" d="M3.61 22.075c0.14 0 2.825 1.44 5.155 2.065 2.262 0.714 4.863 1.126 7.561 1.126 0.061 0 0.123-0 0.184-0.001l-0.009 0c3.545 0 5.34-0.045 7.825-0.655s3.91-1.44 4-1.375c0.048 0.029 0.079 0.082 0.079 0.141 0 0.035-0.011 0.068-0.030 0.095l0-0.001c-1.401 1.369-3.146 2.393-5.092 2.93l-0.083 0.020c-1.626 0.392-3.492 0.617-5.411 0.617-2.010 0-3.963-0.247-5.83-0.712l0.165 0.035c-4.095-1.035-6.25-2-7.11-2.705s-1.64-1.595-1.405-1.58z"></path>
</symbol>
<symbol id="enemyLvl5" viewBox="0 0 32 32">
<path fill="#1d1d1b" style="fill: var(--color1, #1d1d1b)" d="M8.825 10.835c0.15-1.492 0.894-2.785 1.989-3.657l0.011-0.008c1.084-0.911 2.357-1.64 3.746-2.12l0.084-0.025c0.185-0.060 0.6-0.14 0.6-0.14s-0.105-0.97 0.12-1.115c0.254-0.107 0.547-0.18 0.855-0.204l0.010-0.001-0.040-0.64s-0.76-0.185-0.865-0.845 0.415-1.5 1.65-1.17c0.557 0.099 0.974 0.58 0.974 1.158 0 0.21-0.055 0.407-0.152 0.578l0.003-0.006c-0.159 0.138-0.356 0.238-0.572 0.284l-0.008 0.001-0.040 0.68s0.72 0 0.74 0.105 0 1.215 0 1.215 2.43 0.165 4 1.83c0.92 1.023 1.612 2.269 1.985 3.647l0.015 0.063v0.29s3.545 0.39 5.415 2c0.808 0.64 1.322 1.622 1.322 2.723 0 0.585-0.145 1.137-0.402 1.621l0.009-0.019c-0.826 1.508-2.053 2.708-3.538 3.478l-0.047 0.022c-0.913 0.533-1.969 1.001-3.079 1.35l-0.111 0.030s2.3 5.765 2.195 6.24-1.44 1.81-4.1 2.37-5.725 1.050-9.5-0.145-3.79-2.225-3.705-2.66 1.71-5.66 1.71-5.66-3.5-0.68-5.77-2.575-3.15-3.585-3-4.5 1.255-2.125 2.925-2.97 4.57-1.225 4.57-1.225z"></path>
<path fill="#cbe7f5" style="fill: var(--color10, #cbe7f5)" d="M16.285 1.39c0.074-0.023 0.158-0.037 0.246-0.037 0.448 0 0.813 0.353 0.834 0.795l0 0.002c0 0.65-1.175 0.54-1.345 0.245-0.061-0.105-0.096-0.232-0.096-0.366 0-0.27 0.143-0.506 0.358-0.637l0.003-0.002z"></path>
<path fill="#f2910d" style="fill: var(--color8, #f2910d)" d="M15.945 4.11c0.155 0 1.435-0.075 1.465 0.080 0.018 0.092 0.028 0.199 0.028 0.308s-0.010 0.215-0.029 0.318l0.002-0.011c-0.045 0.030-1.575 0.030-1.575 0.030s-0.030-0.74 0.11-0.725z"></path>
<path fill="#e7413e" style="fill: var(--color12, #e7413e)" d="M9.905 11.23c-0.055-0.055-0.095-1.5 1.265-3s2.965-2.47 5.035-2.595c0.064-0.002 0.139-0.003 0.214-0.003 1.99 0 3.789 0.818 5.079 2.137l0.001 0.001c0.726 0.891 1.232 1.989 1.42 3.192l0.005 0.038c0.045 0.37 0.095 0.435 0 0.5s-1.19 0.525-1.19 0.525-2.19-1.5-2.255-1.465-0.31 0.32-0.245 0.355 2.16 1.235 2.055 1.295c-0.233 0.098-0.505 0.173-0.787 0.213l-0.018 0.002c-0.060 0-1.5-1-1.62-1s-0.39 0.185-0.31 0.26 1.5 0.775 1.31 0.915-3.58 0.415-6.175-0.095-3.465-0.915-3.785-1.275z"></path>
<path fill="#1d1d1b" style="fill: var(--color1, #1d1d1b)" d="M11.5 10.725c-0.005-0.069-0.008-0.15-0.008-0.232 0-0.735 0.246-1.413 0.659-1.956l-0.006 0.008c0.775-1.145 1.5-1.53 1.61-1.5s0.245 0.455 0.245 0.455c-0.651 0.291-1.17 0.779-1.492 1.388l-0.008 0.017c-0.5 1.035-0.42 1.93-0.555 2s-0.375-0.060-0.445-0.18zM20.070 9.84c0.12-0.12 2.425 1.285 2.375 1.44s-0.17 0.245-0.245 0.23-2.285-1.205-2.3-1.265c0.016-0.156 0.078-0.295 0.171-0.406l-0.001 0.001zM20.235 9.24c-0.030-0.045 0.065-0.295 0.19-0.265 0.794 0.404 1.473 0.83 2.111 1.311l-0.036-0.026c0 0.14 0 0.275-0.11 0.275-0.843-0.441-1.548-0.871-2.223-1.34l0.068 0.045zM20.64 8.080c0.065 0 1.050 0.405 1.065 0.555s0.060 0.265 0 0.265c-0.423-0.148-0.784-0.317-1.125-0.516l0.030 0.016c-0.050-0.055-0.11-0.32 0.030-0.32z"></path>
<path fill="#fab900" style="fill: var(--color6, #fab900)" d="M9.935 12.285c1.377 0.629 2.975 1.081 4.651 1.273l0.074 0.007c0.709 0.098 1.529 0.154 2.362 0.154 1.448 0 2.856-0.169 4.207-0.489l-0.124 0.025c0.768-0.192 1.426-0.42 2.057-0.697l-0.082 0.032c0.045 0.035 0.11 1.795-0.17 2.18s-2.365 1.265-6 1.235-6-1-6.33-1.22c-0.227-0.123-0.408-0.308-0.522-0.533l-0.003-0.007c-0.030-0.14-0.23-1.915-0.12-1.96z"></path>
<path fill="#1d1d1b" style="fill: var(--color1, #1d1d1b)" d="M11.695 13.565c0.12-0.064 0.263-0.101 0.415-0.101 0.45 0 0.823 0.33 0.889 0.761l0.001 0.005c0.17 0.785-1.080 0.97-1.525 0.68-0.187-0.142-0.306-0.364-0.306-0.615 0-0.338 0.218-0.625 0.521-0.729l0.005-0.002z"></path>
<path fill="#cbe7f5" style="fill: var(--color10, #cbe7f5)" d="M12.050 13.965c0.215 0 0.635 0.325 0.4 0.575-0.095 0.086-0.222 0.138-0.361 0.138-0.163 0-0.31-0.073-0.409-0.187l-0.001-0.001c-0.017-0.042-0.026-0.090-0.026-0.14 0-0.213 0.172-0.385 0.385-0.385 0.004 0 0.008 0 0.012 0h-0.001z"></path>
<path fill="#1d1d1b" style="fill: var(--color1, #1d1d1b)" d="M16.36 14.075c0.335-0.135 1.3 0.11 1.36 0.85s-1 1-1.655 0.665-0.475-1.205 0.295-1.515z"></path>
<path fill="#cbe7f5" style="fill: var(--color10, #cbe7f5)" d="M16.605 14.5c0.2-0.045 0.56 0.185 0.545 0.435s-0.355 0.43-0.73 0.295-0.26-0.63 0.185-0.73z"></path>
<path fill="#1d1d1b" style="fill: var(--color1, #1d1d1b)" d="M20.53 13.625c0.335-0.195 1.455-0.355 1.73 0.205s0.125 1.155-0.63 1.22-1.085-0.14-1.255-0.405c-0.098-0.119-0.157-0.273-0.157-0.44 0-0.241 0.123-0.454 0.309-0.578l0.003-0.002z"></path>
<path fill="#cbe7f5" style="fill: var(--color10, #cbe7f5)" d="M20.885 13.905c0.215-0.175 1-0.030 1 0.23s-0.125 0.59-0.77 0.42-0.385-0.525-0.23-0.65z"></path>
<path fill="#e7413e" style="fill: var(--color12, #e7413e)" d="M24.24 11.91c0.054-0.002 0.118-0.002 0.182-0.002 1.148 0 2.228 0.288 3.174 0.795l-0.036-0.018c1.745 0.865 2.255 1.605 2.255 2.21-0.074 0.623-0.336 1.175-0.727 1.608l0.002-0.003c-0.416 0.331-0.885 0.661-1.372 0.963l-0.063 0.037c-0.192 0.111-0.415 0.196-0.651 0.243l-0.014 0.002s-2.135-0.975-2.24-1-0.37 0.25-0.25 0.355 2.055 0.805 1.95 0.915-1.935 0.665-5 0.925-7.185 0.45-11.25-0.28-6.74-2.13-7.11-2.485-1.16-0.85 0.11-2.085 3.395-2 4.105-2.255c0.413-0.141 0.904-0.258 1.41-0.33l0.045-0.005s0 2.13 0.34 2.72 0.9 1.305 2.625 1.83c1.674 0.512 3.598 0.807 5.591 0.807 0.103 0 0.206-0.001 0.309-0.002l-0.016 0c1.747-0.059 3.401-0.367 4.957-0.891l-0.122 0.036c0.705-0.275 1.27-0.779 1.617-1.419l0.008-0.016c0.141-0.347 0.223-0.751 0.223-1.173 0-0.082-0.003-0.163-0.009-0.243l0.001 0.011c-0.034-0.269-0.053-0.581-0.053-0.897 0-0.124 0.003-0.248 0.009-0.37l-0.001 0.017z"></path>
<path fill="#1d1d1b" style="fill: var(--color1, #1d1d1b)" d="M25.055 15.65c1.1 0.371 1.999 0.741 2.87 1.16l-0.15-0.065c0 0.065-0.075 0.22-0.215 0.19s-2.765-0.935-2.78-0.975 0.22-0.295 0.275-0.31zM25.5 15.095s0.265-0.325 0.34-0.325 2.95 1.265 2.89 1.375-0.045 0.17-0.155 0.17-3.025-1.16-3.075-1.22zM25.8 13.595c1.295 0.499 2.359 0.993 3.386 1.547l-0.156-0.077c0 0.045 0 0.17-0.065 0.185s-3.26-1.115-3.335-1.205 0.105-0.42 0.17-0.45zM26.37 13c-0.070-0.045 0.045-0.325 0.17-0.295 0.622 0.187 1.154 0.403 1.661 0.661l-0.056-0.026c0 0.090 0 0.245-0.075 0.23s-1.62-0.53-1.7-0.57zM4.68 15.695c-0.132-0.163-0.213-0.373-0.213-0.602s0.080-0.439 0.214-0.604l-0.001 0.002c0.502-0.638 1.161-1.131 1.919-1.425l0.031-0.010c0.12 0.045 0.26 0.23 0.15 0.28s-1.39 0.725-1.62 1.265 0.17 0.77 0.17 0.895-0.525 0.295-0.65 0.2z"></path>
<path fill="#a42116" style="fill: var(--color13, #a42116)" d="M3.355 17.29c0.105-0.12 1.295 0.83 3.5 1.42s4.035 1.125 8.81 1.29 6.75-0.275 8.65-0.645 3.63-1.1 3.725-1-0.85 0.88-2.29 1.545c-2.482 1.234-5.402 1.969-8.49 2l-0.010 0c-0.273 0.010-0.594 0.016-0.916 0.016-3.264 0-6.386-0.606-9.261-1.711l0.177 0.060c-2.355-0.94-4.085-2.765-3.895-2.975z"></path>
<path fill="#cbe7f5" style="fill: var(--color10, #cbe7f5)" d="M11.28 22.26c0.026-0.001 0.056-0.001 0.087-0.001 0.475 0 0.928 0.092 1.342 0.26l-0.024-0.009c-0.035 0.090-0.93 4.095-0.835 4.14s0.215 0.155 0.26 0.090 0.93-4.14 1.050-4.14 0.85 0.155 1.7 0.235l1.81 0.155s0.14 2.41 0.060 3.92-0.045 1.935 0 1.95c0.276-0.941 0.435-2.022 0.435-3.14 0-0.016-0-0.032-0-0.048v0.002c0-1.575-0.095-2.625 0-2.67s0.43 0.030 1.14-0.095 1.255-0.17 1.255-0.17 0.675 2 0.94 2.75 0.57 2.010 0.57 2.010h0.17c-0.179-1.086-0.398-2.018-0.672-2.926l0.042 0.161c-0.465-1.59-0.665-2-0.62-2.040 0.549-0.058 1.033-0.139 1.506-0.246l-0.086 0.016c0.71-0.17 1.13-0.25 1.13-0.25s2.055 5.61 2.070 5.81-1.035 0.975-2.11 1.36c-0.574 0.202-1.276 0.389-1.996 0.525l-0.094 0.015s-0.245-1.62-0.525-2.825-0.355-1.5-0.46-1.53c-0.015-0.002-0.032-0.003-0.049-0.003-0.075 0-0.145 0.024-0.202 0.064l0.001-0.001s0.405 1.73 0.605 2.905c0.097 0.44 0.163 0.955 0.184 1.482l0.001 0.018c-1.010 0.168-2.185 0.272-3.382 0.29l-0.018 0c-0.119 0.004-0.258 0.006-0.398 0.006-0.821 0-1.624-0.081-2.4-0.234l0.078 0.013c0.035-0.060 0.745-4.54 0.68-4.59s-0.4-0.105-0.415-0.030-1.25 4.31-1.315 4.325c-0.863-0.236-1.586-0.494-2.284-0.797l0.109 0.042c-0.79-0.34-1.19-0.555-1.22-0.725s1.66-5.98 1.88-6.075z"></path>
<path fill="#cbe7f5" style="fill: var(--color10, #cbe7f5)" d="M13.070 29.865c-0.245-0.050 0.835-2.765 0.925-2.765s0.065 0.075 0.065 0.15c-0.168 1.099-0.374 2.039-0.632 2.959l0.042-0.174c-0.090 0-0.325-0.155-0.4-0.17z"></path>
</symbol>
<symbol id="player1" viewBox="0 0 32 32">
<path fill="#1d1d1b" style="fill: var(--color1, #1d1d1b)" d="M11.925 1.825c0.46-0.040 1.135 0.3 0.93 2.575s-1.62 4.28-1.885 7.29 0.425 7.31 0.425 7.31c-0-0.007-0-0.015-0-0.024 0-0.497 0.060-0.98 0.174-1.442l-0.009 0.041c0.266-0.071 0.571-0.111 0.886-0.111 0.18 0 0.356 0.013 0.529 0.039l-0.020-0.002c0 0.105 0.285 4.095 0.39 4.135 0.202 0.038 0.448 0.068 0.697 0.084l0.018 0.001s-0.5-3.47 0.725-4.235 2.715-0.6 3.2 0.325 0.5 3.59 0.5 3.59 0.5 0.070 0.5 0-0.1-4.105 0-4.17 1.265-0.12 1.29 0c0.068 0.538 0.179 1.021 0.331 1.486l-0.016-0.056c0.080 0 1-2.5 0.84-6.030-0.193-2.602-0.765-5.016-1.663-7.264l0.058 0.164c-0.14-0.415-0.83-1.915-0.36-3.030s2-0.875 3.035 0.5 4 5.78 4.85 10.28 0.15 9.050-0.805 11.37-2.26 4.61-2.895 4.9-2.44 0.095-3-0.055-1.765-0.5-2.135-0.355-1.14 1-2.73 0.77-2.185-1.25-3.095-1.055-2.92 1.335-3.44 1.35-1.73-0.78-2.93-3.165-2.025-7.085-2.010-10.11c-0-0.039-0-0.086-0-0.132 0-3.305 0.864-6.408 2.379-9.096l-0.048 0.093c1.645-2.86 3.29-5.795 5.285-5.97z"></path>
<path fill="#85bfe9" style="fill: var(--color14, #85bfe9)" d="M11.535 2.755c0.21-0.040 0.425 1.59 0.050 3.060s-1.455 3.605-1.65 6.185c-0.018 0.396-0.028 0.861-0.028 1.328 0 2.364 0.264 4.667 0.763 6.88l-0.039-0.208c0.653 2.113 1.48 3.947 2.5 5.652l-0.065-0.117c0.345 0.425 0.37 0.47 0.5 0.425 0.116-0.071 0.193-0.196 0.195-0.34v-0c-0.493-0.94-0.957-2.052-1.328-3.207l-0.043-0.153c-0.33-1.32-0.54-2.13-0.54-2.13s-0.080-1.955 0.065-2 0.585-0.13 0.585-0.065 0.305 3.95 0.435 4.030 1.085 0.090 1.13 0.215 0.58 5.425 0.765 5.5 0.7-0.29 0.74-0.415-0.29-2.68-0.375-4.245-0.095-2.15-0.035-2.15c0.342-0.132 0.738-0.209 1.151-0.209 0.123 0 0.244 0.007 0.364 0.020l-0.015-0.001c0.735 0.105 0.825 0.455 0.825 0.455s-0.46 4.81-0.565 5.5-0.285 0.865-0.095 0.92c0.031 0.002 0.068 0.003 0.105 0.003 0.291 0 0.567-0.069 0.81-0.193l-0.010 0.005c0-0.080 0.365-3.24 0.5-4.265s0.045-1.21 0.15-1.21c0.041 0.001 0.089 0.002 0.137 0.002 0.334 0 0.66-0.035 0.974-0.102l-0.030 0.005c0-0.085-0.12-4.085 0-4.13 0.042-0.014 0.091-0.022 0.141-0.022 0.078 0 0.152 0.019 0.217 0.053l-0.003-0.001c0.065 0.040 0.405 2.43 0.41 2.575-0.377 1.495-0.808 2.764-1.327 3.987l0.067-0.177c-0.55 1.205-0.775 1.42-0.665 1.5 0.099 0.034 0.214 0.054 0.332 0.054s0.233-0.020 0.34-0.056l-0.007 0.002c0.968-1.749 1.79-3.775 2.361-5.904l0.044-0.191c0.73-2.925 1.13-6.565 0.775-9.22-0.388-2.127-0.958-4.012-1.713-5.8l0.068 0.18c-0.066-0.243-0.119-0.532-0.148-0.828l-0.002-0.022c0-0.165-0.070-1 0.24-1.050s1.95 1.695 2.96 3.415 1.040 2.135 1.040 2.135-1.5 0.085-1.45 0.23c0.367 2.018 0.583 4.347 0.595 6.724l0 0.011c-0.085 2.795-0.915 6.45-0.825 6.655s0.85 0.6 1.59 0.83c0.506 0.123 0.947 0.354 1.314 0.669l-0.004-0.004c0 0.085-0.715 1.94-0.715 1.94s-0.86-1.62-1-1.595-0.395 0.135-0.305 0.28 1.050 1.615 1.030 1.7-0.32 0.655-0.32 0.655c-0.454-0.802-0.894-1.476-1.37-2.122l0.040 0.057c-0.125 0-0.41 0.24-0.345 0.405s1.375 2 1.355 2.105c-0.139 0.34-0.307 0.633-0.508 0.901l0.008-0.011c0-0.060-1.325-2.545-1.45-2.5s-0.285 0.24-0.26 0.3 1.55 2.435 1.5 2.585-0.095 0.42-0.22 0.42-0.29 0.050-0.355 0-1.385-2.5-1.53-2.5-0.335 0.050-0.27 0.15 1.325 2.4 1.26 2.36-0.82-0.18-0.82-0.18-0.94-1.58-1.11-1.575-0.305 0.115-0.26 0.215 0.835 1.285 0.76 1.265c-0.612-0.152-1.36-0.282-2.124-0.363l-0.076-0.007c-0.25 0.050-1.33 0.81-2.37 0.885s-2.355-0.915-3.115-0.95-3.13 1.155-3.5 1.165-0.835 0.025-2.15-2.185-1.745-3.91-1.665-4.040 1.955-0.95 2.285-1.105c0.441-0.183 0.817-0.384 1.172-0.616l-0.027 0.016c-0.383-1.631-0.693-3.599-0.864-5.606l-0.011-0.159c-0.021-0.476-0.033-1.034-0.033-1.595 0-1.529 0.090-3.038 0.266-4.52l-0.017 0.18c0.075-0.295 0.18-0.82 0.035-0.875s-1.625 0.025-1.605-0.035c0.694-1.4 1.386-2.575 2.149-3.698l-0.069 0.108c0.92-1.29 1.67-2.125 2.33-2.245z"></path>
<path fill="#1d1d1b" style="fill: var(--color1, #1d1d1b)" d="M10.445 4.535c0.11-0.105 0.415-0.030 0.335 0.18s-0.83 2.15-0.975 2.175-0.44-0.050-0.445-0.175c0.327-0.84 0.692-1.558 1.117-2.234l-0.032 0.054z"></path>
<path fill="#e7413e" style="fill: var(--color12, #e7413e)" d="M6.91 9.080c0.205-0.025 1.33-0.1 1.295 0.025-0.242 1.405-0.38 3.023-0.38 4.673 0 0.5 0.013 0.998 0.038 1.492l-0.003-0.069c0.175 3.060 0.92 5.725 0.78 5.855-0.785 0.423-1.723 0.838-2.693 1.184l-0.147 0.046c0-0.080-0.4-3-0.34-3.055s1.205-0.745 1.245-0.85 0.030-0.415-0.055-0.415-1.33 0.79-1.31 0.705-0.035-1.185 0-1.29 1.090-0.535 1.11-0.595-0.055-0.5-0.14-0.5-1 0.57-1.050 0.47c-0.007-0.161-0.011-0.349-0.011-0.538 0-0.45 0.022-0.894 0.065-1.332l-0.004 0.056c0.065-0.045 1.3-0.5 1.32-0.54s-0.035-0.46-0.115-0.455-1.135 0.41-1.135 0.41c0.211-1.265 0.473-2.355 0.803-3.415l-0.048 0.18c0.253-0.816 0.516-1.492 0.819-2.145l-0.044 0.105z"></path>
<path fill="#85bfe9" style="fill: var(--color14, #85bfe9)" d="M15 19.26c-0.060 0 0-1.5 1.205-1.535s1.25 1.38 1.25 1.38c-0.29-0.069-0.622-0.108-0.964-0.108-0.535 0-1.047 0.096-1.521 0.273l0.030-0.010z"></path>
<path fill="#e7413e" style="fill: var(--color12, #e7413e)" d="M15 19.7c-0.040-0.105 0.765-0.255 1.265-0.27 0.404 0.006 0.793 0.062 1.163 0.163l-0.033-0.008s0.11 0.895 0.025 0.915c-0.377-0.105-0.81-0.165-1.258-0.165-0.022 0-0.044 0-0.066 0l0.003-0c-0.56 0.075-1.075 0.175-1.075 0.175 0.004-0.073 0.006-0.158 0.006-0.244 0-0.2-0.011-0.396-0.033-0.59l0.002 0.024zM23.795 9.1c0.12-0.025 0.89-0.19 0.975-0.090s1 2.595 1.23 3.5 0.47 1.84 0.47 1.84-1.245-0.605-1.33-0.5-0.14 0.615-0.060 0.65c0.597 0.22 1.092 0.444 1.568 0.698l-0.068-0.033c0 0.065 0.135 1 0.165 1.225s0.040 0.645 0.040 0.645-1.47-1-1.59-0.825c-0.075 0.108-0.12 0.241-0.12 0.385 0 0.041 0.004 0.080 0.010 0.119l-0.001-0.004c0.045 0.065 1.66 1.12 1.68 1.18 0.016 0.107 0.025 0.23 0.025 0.355s-0.009 0.248-0.026 0.369l0.002-0.014c-0.035 0.17-0.070 0.38-0.070 0.38s-1.5-0.69-1.58-0.6-0.175 0.44-0.090 0.5 1.665 0.62 1.67 0.805-0.205 1.57-0.27 2.095-0.16 0.94-0.245 0.945-2.5-0.805-2.59-0.885 0.595-3.145 0.73-5.67-0.525-7.070-0.525-7.070z"></path>
<path fill="#1d1d1b" style="fill: var(--color1, #1d1d1b)" d="M7.545 23.44s0.385-0.26 0.41-0.175 1 2.285 1 2.385-0.265 0.32-0.37 0.305-0.955-2.35-1.040-2.515z"></path>
</symbol>
<symbol id="player2" viewBox="0 0 32 32">
<path fill="#1d1d1b" style="fill: var(--color1, #1d1d1b)" d="M4.025 17.88c0.545-2.958 1.369-5.585 2.465-8.063l-0.090 0.228c1.795-4.095 4.4-8.090 4.805-8.255s3.465-0.16 3.53 0 0.245 4.43 0.245 4.43c0.239-0.034 0.514-0.054 0.795-0.054 0.35 0 0.693 0.030 1.026 0.089l-0.035-0.005s-0.090-4.47 0.095-4.565 4.025-0.175 4.28 0 3.325 6.84 3.325 6.84 0.46-0.6 0.77-0.64 1.84-0.13 1.94 0.025 1.35 3.38 1.45 3.75-0.085 5.1-0.125 5.34-0.77 0.61-0.77 0.61c0.101 0.468 0.159 1.006 0.159 1.558 0 1.102-0.232 2.149-0.649 3.096l0.019-0.049c-1.050 2.24-2 2.945-2 2.945 0.009 0.129 0.015 0.279 0.015 0.431 0 0.278-0.018 0.552-0.053 0.821l0.003-0.032c-0.090 0.28-3.64 4-9.42 4.035s-9.29-3.25-9.265-3.63c0.075-0.389 0.198-0.736 0.365-1.056l-0.010 0.021c-0.659-0.534-1.196-1.19-1.584-1.936l-0.016-0.034-0.645-1.28c-0.023 0.003-0.051 0.004-0.078 0.004-0.356 0-0.656-0.244-0.741-0.574l-0.001-0.005c-0.295-1.144-0.476-2.463-0.5-3.82l-0-0.015c0.105-0.14 0.54-0.090 0.695-0.21z"></path>
<path fill="#e6e4da" style="fill: var(--color2, #e6e4da)" d="M7.525 10.025s1.705-3.785 2.525-5.115 1.36-2.245 1.575-2.28 2.375 0 2.41 0.135 0 3.66 0 3.66-0.62 0.45-0.61 0.76v0.315c-2.271 0.724-4.223 1.58-6.065 2.61l0.165-0.085zM17.91 2.75c0.195-0.2 2.435-0.205 2.66 0s3.5 7.21 3.555 7.335c0.001 0.026 0.001 0.058 0.001 0.089 0 0.223-0.019 0.441-0.054 0.654l0.003-0.023c-0.873-1.19-2.089-2.084-3.5-2.541l-0.050-0.014c-2.2-0.58-2.7-0.475-2.7-0.57s0.025-4.865 0.085-4.93zM14.53 7.070c0.351-0.139 0.758-0.22 1.184-0.22 0.065 0 0.13 0.002 0.194 0.006l-0.009-0c0.049-0.004 0.105-0.007 0.162-0.007 0.367 0 0.711 0.099 1.007 0.272l-0.009-0.005c0.065 0.12 0.035 7.92-0.12 7.955s-2 0.195-2.060 0-0.47-7.84-0.35-8zM25.5 9s0.84-0.175 1.030 0c0.404 0.818 0.817 1.823 1.167 2.858l0.053 0.182c0 0.095-0.15 5-0.15 5s-7.8 1.83-7.895 1.71-0.395-1-0.24-1.090 5-3.945 5.105-4.135 0.32-2.63 0.38-2.82 0.55-1.705 0.55-1.705z"></path>
<path fill="#ddc07c" style="fill: var(--color9, #ddc07c)" d="M13.59 8.425c0.075 0 0.41 6 0.41 6l-0.62-0.86s-0.225 0.17-0.205 0.255 0.885 1.44 0.885 1.5-0.195 0.18-0.305 0.28c-0.046 0.041-0.097 0.079-0.15 0.112l-0.005 0.003c-0.338-0.509-0.68-0.951-1.050-1.367l0.010 0.012c-0.090 0-0.235 0.15-0.215 0.185 0.306 0.4 0.621 0.858 0.913 1.332l0.042 0.073c-0.030 0.055-0.425 0.415-0.425 0.415-0.265-0.415-0.543-0.776-0.85-1.111l0.005 0.006c-0.105 0-0.25 0.18-0.225 0.22s0.845 1.19 0.825 1.245-0.265 0.35-0.265 0.35c-0.307-0.428-0.615-0.803-0.946-1.157l0.006 0.007c-0.070 0-0.245 0.205-0.21 0.255s0.905 1.17 0.91 1.2-0.205 0.38-0.225 0.455-0.025 0.105-0.025 0.105c-0.424-0.591-0.839-1.106-1.28-1.597l0.015 0.017c-0.070 0-0.225 0.12-0.205 0.18s1.29 1.88 1.29 1.88c-0.159 0.028-0.349 0.047-0.542 0.055l-0.008 0c-0.030 0-1.345-1.685-1.38-1.67s-0.265 0.195-0.265 0.235 1.155 1.5 1.115 1.5c-0.217 0.034-0.468 0.054-0.723 0.054-0.068 0-0.135-0.001-0.202-0.004l0.010 0c-0.085-0.050-0.825-1.16-0.88-1.16s-0.245 0.155-0.225 0.205 0.605 1 0.575 1-1.945-0.16-2.905-0.285-1.455-0.305-1.445-0.42 0.545-3.595 1.555-5.095 3-2.71 4.185-3.275c0.849-0.418 1.855-0.805 2.899-1.103l0.131-0.032z"></path>
<path fill="#e6e4da" style="fill: var(--color2, #e6e4da)" d="M15.765 15.735c1.735 0 3.11 1.375 3.2 3.5s-1.42 3.295-3.28 3.375c-0.010 0-0.022 0-0.034 0-1.574 0-2.865-1.212-2.99-2.755l-0.001-0.011c-0.085-1.22 0.045-4.065 3.105-4.11z"></path>
<path fill="#1d1d1b" style="fill: var(--color1, #1d1d1b)" d="M15.55 16.5c1.25-0.265 2 1.255 1.67 2.295s-2.46 1.19-2.825 0.15 0.175-2.22 1.155-2.445z"></path>
<path fill="#ddc07c" style="fill: var(--color9, #ddc07c)" d="M15.61 16.94c0.915-0.195 1.5 0.92 1.225 1.68s-1.8 0.87-2.070 0.11c-0.062-0.149-0.097-0.322-0.097-0.503 0-0.6 0.391-1.108 0.933-1.284l0.010-0.003z"></path>
<path fill="#1d1d1b" style="fill: var(--color1, #1d1d1b)" d="M8.68 12.19c0.249-0.113 0.541-0.179 0.848-0.179 0.714 0 1.344 0.357 1.723 0.902l0.005 0.007c0.171 0.264 0.273 0.586 0.273 0.932 0 0.767-0.499 1.418-1.19 1.644l-0.012 0.003c-1.195 0.46-2.5 0-2.695-1-0.052-0.166-0.082-0.358-0.082-0.556 0-0.776 0.459-1.444 1.12-1.749l0.012-0.005z"></path>
<path fill="#e6e4da" style="fill: var(--color2, #e6e4da)" d="M8.865 12.54c0.196-0.089 0.425-0.14 0.665-0.14 0.562 0 1.058 0.281 1.356 0.71l0.004 0.005c0.135 0.208 0.216 0.462 0.216 0.735 0 0.603-0.392 1.114-0.936 1.293l-0.010 0.003c-0.94 0.365-1.96 0-2.12-0.79-0.043-0.133-0.067-0.285-0.067-0.444 0-0.608 0.362-1.132 0.883-1.367l0.009-0.004z"></path>
<path fill="#ddc07c" style="fill: var(--color9, #ddc07c)" d="M21.585 9.68c-1.065-0.538-2.301-0.958-3.6-1.197l-0.085-0.013c-0.060 0.125-0.2 6.945-0.2 6.945 0.288 0.097 0.538 0.219 0.768 0.368l-0.013-0.008c0.334 0.352 0.598 0.773 0.767 1.24l0.008 0.025 1.93-1.5c-0.041 0.004-0.088 0.006-0.136 0.006-0.749 0-1.382-0.494-1.591-1.174l-0.003-0.012c-0.050-0.162-0.078-0.349-0.078-0.542 0-0.781 0.466-1.453 1.136-1.753l0.012-0.005c0.25-0.113 0.541-0.178 0.848-0.178 0.715 0 1.347 0.357 1.727 0.902l0.005 0.007c0.165 0.273 0.263 0.603 0.263 0.955 0 0.039-0.001 0.077-0.003 0.115l0-0.005c0.15-0.12 0.245-0.205 0.255-0.215 0.060-0.095 0.345-1.445 0.345-1.445-0.514-1.074-1.325-1.936-2.327-2.5l-0.028-0.015z"></path>
<path fill="#e6e4da" style="fill: var(--color2, #e6e4da)" d="M20.66 12.415c-0.529 0.239-0.891 0.763-0.891 1.371 0 0.157 0.024 0.308 0.069 0.45l-0.003-0.011c0.155 0.73 1.050 1.095 1.93 0.85l1-0.79c0.079-0.169 0.125-0.366 0.125-0.575 0-0.268-0.076-0.519-0.208-0.731l0.003 0.006c-0.303-0.431-0.798-0.71-1.359-0.71-0.241 0-0.47 0.052-0.677 0.144l0.010-0.004zM4.34 18.7c0.5-0.070 2.775 0.5 4.53 0.565s2.955 0.035 2.955 0.080 0.060 0.81 0.060 0.81-6.97 1.535-7.050 1.475-0.76-2.895-0.495-2.93zM19.75 19.5c0.155 0 7.19-1.445 7.24-1.32 0.018 0.266 0.028 0.577 0.028 0.89s-0.010 0.624-0.030 0.932l0.002-0.042c-0.011 0.351-0.114 0.675-0.285 0.953l0.005-0.008s-7-0.5-7-0.545 0.040-0.86 0.040-0.86zM19.655 20.905c0.075 0 6.795 0.695 6.78 0.785s-0.5 1.060-0.675 1.39c-0.128 0.226-0.279 0.42-0.454 0.589l-0.001 0.001c-0.080-0.465-0.198-0.878-0.355-1.272l0.015 0.042c-0.090 0-0.42 0.085-0.37 0.21s0.34 1.43 0.345 1.5c-0.106 0.156-0.221 0.292-0.349 0.414l-0.001 0.001c-0.062-0.044-0.115-0.095-0.159-0.153l-0.001-0.002c-0.035-0.060-0.45-2.165-0.5-2.195s-0.41-0.145-0.405 0 0.38 1.85 0.315 1.835-0.84-0.615-0.84-0.615 0-1.345-0.15-1.435-0.395-0.18-0.395-0.12 0.055 1.175 0.055 1.175l-0.62-0.5s0.065-0.69-0.030-0.75-0.5-0.19-0.5-0.145-0.080 0.5-0.080 0.5-1.645-0.935-1.665-1c0.001-0.091 0.015-0.179 0.042-0.261l-0.002 0.006zM7.38 25.295c-0.478-0.513-0.908-1.082-1.275-1.694l-0.025-0.046c-0.325-0.68-0.54-1.27-0.435-1.32s6.355-1.44 6.41-1.395c0.094 0.159 0.192 0.353 0.28 0.552l0.015 0.038c-0.259 0.274-0.537 0.525-0.833 0.753l-0.017 0.012c0-0.060-0.42-0.725-0.5-0.705s-0.23 0.080-0.215 0.145 0.41 0.785 0.41 0.785-0.385 0.4-0.435 0.34c-0.262-0.429-0.512-0.791-0.781-1.139l0.021 0.029c-0.065 0-0.23 0.205-0.23 0.205 0.213 0.335 0.414 0.724 0.581 1.129l0.019 0.051c-0.139 0.116-0.295 0.222-0.46 0.312l-0.015 0.008c-0.3-0.488-0.618-0.911-0.972-1.302l0.007 0.008c-0.125 0-0.405 0.090-0.385 0.23s0.855 1.355 0.805 1.39l-0.4 0.27s-1-1.555-1.075-1.555c-0.156 0.058-0.29 0.124-0.415 0.201l0.010-0.006s1.030 1.665 1.030 1.715c-0.107 0.097-0.223 0.193-0.343 0.282l-0.012 0.008c-0.447-0.704-0.886-1.307-1.36-1.881l0.025 0.031c-0.075 0.050-0.34 0.145-0.305 0.21s1.225 2 1.225 2z"></path>
<path fill="#ddc07c" style="fill: var(--color9, #ddc07c)" d="M12.885 22.265s0.805 1.2 2.85 1.095c1.303-0.101 2.449-0.7 3.261-1.605l0.004-0.005 3.545 2.145c1.025 0.62 1.65 1.42 1.64 1.655s-3.015 3.95-8.62 4.175-7.905-2.84-7.865-3.225 4.885-4.37 5.185-4.235z"></path>
<path fill="#1d1d1b" style="fill: var(--color1, #1d1d1b)" d="M15.68 23.83c0.013-0 0.028-0.001 0.043-0.001 0.679 0 1.23 0.551 1.23 1.23 0 0.174-0.036 0.339-0.101 0.489l0.003-0.008c-0.385 1.040-2.075 0.95-2.5 0.115-0.065-0.15-0.102-0.326-0.102-0.509 0-0.729 0.591-1.32 1.32-1.32 0.038 0 0.075 0.002 0.112 0.005l-0.005-0z"></path>
<path fill="#92a0d1" style="fill: var(--color7, #92a0d1)" d="M15.655 24.23c0.008-0 0.017-0 0.026-0 0.461 0 0.835 0.374 0.835 0.835 0 0.118-0.024 0.229-0.068 0.331l0.002-0.005c-0.26 0.705-1.405 0.64-1.68 0.075-0.043-0.101-0.068-0.219-0.068-0.342 0-0.494 0.401-0.895 0.895-0.895 0.020 0 0.041 0.001 0.061 0.002l-0.003-0z"></path>
<path fill="#1d1d1b" style="fill: var(--color1, #1d1d1b)" d="M15.66 26.88c0.008-0 0.018-0 0.027-0 0.552 0 1 0.448 1 1 0 0.139-0.028 0.272-0.080 0.392l0.002-0.007c-0.31 0.84-1.68 0.77-2 0.090-0.051-0.12-0.080-0.26-0.080-0.407 0-0.591 0.479-1.070 1.070-1.070 0.021 0 0.042 0.001 0.063 0.002l-0.003-0z"></path>
<path fill="#e7413e" style="fill: var(--color12, #e7413e)" d="M15.635 27.27c0.005-0 0.011-0 0.017-0 0.337 0 0.61 0.273 0.61 0.61 0 0.085-0.017 0.166-0.049 0.239l0.002-0.004c-0.123 0.225-0.359 0.375-0.629 0.375-0.248 0-0.466-0.126-0.594-0.317l-0.002-0.003c-0.030-0.073-0.048-0.157-0.048-0.246 0-0.362 0.293-0.655 0.655-0.655 0.013 0 0.027 0 0.040 0.001l-0.002-0z"></path>
<path fill="#1d1d1b" style="fill: var(--color1, #1d1d1b)" d="M19.26 23.29c0.008-0 0.018-0 0.027-0 0.552 0 1 0.448 1 1 0 0.139-0.028 0.272-0.080 0.392l0.002-0.007c-0.31 0.845-1.68 0.77-2 0.095-0.052-0.122-0.082-0.263-0.082-0.412 0-0.591 0.479-1.070 1.070-1.070 0.022 0 0.044 0.001 0.065 0.002l-0.003-0z"></path>
<path fill="#e6e4da" style="fill: var(--color2, #e6e4da)" d="M19.235 23.685c0.007-0 0.015-0 0.023-0 0.334 0 0.605 0.271 0.605 0.605 0 0.085-0.018 0.166-0.049 0.239l0.002-0.004c-0.123 0.225-0.359 0.375-0.629 0.375-0.248 0-0.466-0.126-0.594-0.317l-0.002-0.003c-0.031-0.073-0.049-0.158-0.049-0.246 0-0.359 0.291-0.65 0.65-0.65 0.015 0 0.030 0.001 0.046 0.002l-0.002-0z"></path>
<path fill="#1d1d1b" style="fill: var(--color1, #1d1d1b)" d="M12.635 23.375c0.010-0 0.022-0.001 0.034-0.001 0.552 0 1 0.448 1 1 0 0.141-0.029 0.275-0.082 0.397l0.002-0.006c-0.315 0.84-1.685 0.765-2 0.090-0.050-0.12-0.080-0.26-0.080-0.406 0-0.594 0.481-1.075 1.075-1.075 0.017 0 0.035 0 0.052 0.001l-0.002-0z"></path>
<path fill="#e6e4da" style="fill: var(--color2, #e6e4da)" d="M12.61 23.77c0.007-0 0.016-0 0.025-0 0.334 0 0.605 0.271 0.605 0.605 0 0.087-0.018 0.17-0.051 0.244l0.002-0.004c-0.123 0.225-0.359 0.375-0.629 0.375-0.248 0-0.466-0.126-0.594-0.317l-0.002-0.003c-0.032-0.074-0.051-0.161-0.051-0.252 0-0.359 0.291-0.65 0.65-0.65 0.016 0 0.032 0.001 0.048 0.002l-0.002-0z"></path>
<path fill="#1d1d1b" style="fill: var(--color1, #1d1d1b)" d="M11.605 25.85c0.010-0 0.022-0.001 0.034-0.001 0.552 0 1 0.448 1 1 0 0.141-0.029 0.275-0.082 0.397l0.002-0.006c-0.315 0.84-1.68 0.765-2 0.090-0.052-0.122-0.082-0.263-0.082-0.412 0-0.591 0.479-1.070 1.070-1.070 0.020 0 0.040 0.001 0.060 0.002l-0.003-0z"></path>
<path fill="#e6e4da" style="fill: var(--color2, #e6e4da)" d="M11.58 26.245c0.007-0 0.015-0 0.023-0 0.334 0 0.605 0.271 0.605 0.605 0 0.085-0.018 0.166-0.049 0.239l0.002-0.004c-0.122 0.227-0.357 0.378-0.628 0.378-0.246 0-0.463-0.125-0.591-0.316l-0.002-0.003c-0.032-0.074-0.051-0.161-0.051-0.251 0-0.359 0.291-0.65 0.65-0.65 0.014 0 0.028 0 0.042 0.001l-0.002-0z"></path>
<path fill="#1d1d1b" style="fill: var(--color1, #1d1d1b)" d="M20.185 25.725c0.008-0 0.018-0 0.027-0 0.552 0 1 0.448 1 1 0 0.139-0.028 0.272-0.080 0.392l0.002-0.007c-0.31 0.845-1.68 0.77-2 0.095-0.052-0.122-0.082-0.263-0.082-0.412 0-0.591 0.479-1.070 1.070-1.070 0.022 0 0.044 0.001 0.065 0.002l-0.003-0z"></path>
<path fill="#e6e4da" style="fill: var(--color2, #e6e4da)" d="M20.16 26.12c0.007-0 0.015-0 0.023-0 0.334 0 0.605 0.271 0.605 0.605 0 0.085-0.018 0.166-0.049 0.239l0.002-0.004c-0.123 0.228-0.359 0.38-0.631 0.38-0.256 0-0.48-0.134-0.607-0.337l-0.002-0.003c-0.027-0.069-0.043-0.149-0.043-0.232 0-0.359 0.291-0.65 0.65-0.65 0.019 0 0.037 0.001 0.055 0.002l-0.002-0z"></path>
<path fill="#1d1d1b" style="fill: var(--color1, #1d1d1b)" d="M9.405 10.955c0.348-0.34 0.764-0.613 1.225-0.796l0.025-0.009c1-0.475 1.11-0.57 1.16-0.5 0.059 0.109 0.099 0.236 0.115 0.37l0 0.005c0 0.060-0.775 0.25-1.3 0.585-0.261 0.147-0.48 0.336-0.656 0.56l-0.004 0.005s-0.55-0.125-0.565-0.22zM11.235 4.775c0.079-0.019 0.169-0.030 0.263-0.030 0.641 0 1.16 0.519 1.16 1.16 0 0.123-0.019 0.242-0.055 0.353l0.002-0.008c-0.26 1-1.745 1.035-2.115 0.525-0.136-0.205-0.216-0.456-0.216-0.726 0-0.602 0.402-1.111 0.952-1.272l0.009-0.002z"></path>
<path fill="#ddc07c" style="fill: var(--color9, #ddc07c)" d="M11.295 5.095c0.063-0.017 0.136-0.027 0.211-0.027 0.458 0 0.83 0.372 0.83 0.83 0 0.092-0.015 0.18-0.043 0.263l0.002-0.006c-0.14 0.364-0.487 0.618-0.894 0.618-0.242 0-0.464-0.090-0.632-0.239l0.001 0.001c-0.098-0.148-0.157-0.329-0.157-0.525 0-0.43 0.284-0.794 0.675-0.913l0.007-0.002z"></path>
<path fill="#1d1d1b" style="fill: var(--color1, #1d1d1b)" d="M19.84 4.665c0.080-0.020 0.173-0.031 0.268-0.031 0.641 0 1.16 0.519 1.16 1.16 0 0.124-0.019 0.243-0.055 0.355l0.002-0.008c-0.26 1-1.745 1.035-2.115 0.525-0.136-0.205-0.217-0.456-0.217-0.727 0-0.601 0.4-1.108 0.948-1.271l0.009-0.002z"></path>
<path fill="#ddc07c" style="fill: var(--color9, #ddc07c)" d="M19.905 5c0.062-0.016 0.132-0.026 0.205-0.026 0.461 0 0.835 0.374 0.835 0.835 0 0.091-0.015 0.179-0.042 0.261l0.002-0.006c-0.147 0.354-0.489 0.599-0.89 0.599-0.233 0-0.446-0.083-0.612-0.22l0.002 0.001c-0.101-0.15-0.161-0.334-0.161-0.533 0-0.423 0.274-0.783 0.655-0.91l0.007-0.002z"></path>
<path fill="#1d1d1b" style="fill: var(--color1, #1d1d1b)" d="M25.395 11.1c0.034-0.008 0.073-0.013 0.114-0.013 0.103 0 0.198 0.031 0.278 0.084l-0.002-0.001c0.035 0.065-0.13 1.88-0.13 1.88s-0.5 0.055-0.535 0c0.063-0.743 0.161-1.41 0.294-2.063l-0.019 0.113z"></path>
</symbol>
</defs>
</svg>
